<?xml version="1.0" encoding="UTF-8"?> <svg xmlns="http://www.w3.org/2000/svg" viewBox="0 0 186.64 50.21"><defs><style>.cls-1{fill:#898888;}.cls-2{fill:#c40d0e;}</style></defs><g id="Ebene_2" data-name="Ebene 2"><g id="Ebene_1-2" data-name="Ebene 1"><path class="cls-1" d="M141.52,29.47h2.15l-1-3h0Zm.43-4.25h1.32L146,32.27h-1.32L144,30.4h-2.82l-.66,1.87h-1.27Z"></path><path class="cls-1" d="M147.2,29.92a1.6,1.6,0,0,0,.13.69,1.28,1.28,0,0,0,.39.47,1.67,1.67,0,0,0,.57.27,3,3,0,0,0,.69.08,2.31,2.31,0,0,0,.69-.09,1.6,1.6,0,0,0,.47-.25.84.84,0,0,0,.25-.34.85.85,0,0,0,.08-.39.83.83,0,0,0-.18-.59,1,1,0,0,0-.4-.27,8.29,8.29,0,0,0-.87-.27c-.34-.08-.75-.18-1.23-.32a2.41,2.41,0,0,1-.76-.31,1.84,1.84,0,0,1-.48-.43,1.57,1.57,0,0,1-.25-.5,2,2,0,0,1-.07-.54,1.79,1.79,0,0,1,.22-.92,1.93,1.93,0,0,1,.59-.65,2.52,2.52,0,0,1,.83-.38,3.71,3.71,0,0,1,.93-.12,3.49,3.49,0,0,1,1,.14,2.57,2.57,0,0,1,.86.43,2,2,0,0,1,.59.7,2.18,2.18,0,0,1,.22,1h-1.24a1.18,1.18,0,0,0-.46-1,1.92,1.92,0,0,0-1.06-.28,2.28,2.28,0,0,0-.44.05,1.65,1.65,0,0,0-.41.14.86.86,0,0,0-.31.29.68.68,0,0,0-.13.44.78.78,0,0,0,.23.59,1.54,1.54,0,0,0,.61.32l.31.08c.18.05.38.11.61.16l.65.18.46.12a2,2,0,0,1,.61.3,1.56,1.56,0,0,1,.42.43,1.54,1.54,0,0,1,.26.51,1.81,1.81,0,0,1,.08.56,2,2,0,0,1-.24,1,2,2,0,0,1-.63.68,2.8,2.8,0,0,1-.9.39,4.47,4.47,0,0,1-1,.13,4.11,4.11,0,0,1-1.13-.15,2.54,2.54,0,0,1-.93-.46,2.22,2.22,0,0,1-.63-.78,2.65,2.65,0,0,1-.25-1.13Z"></path><polygon class="cls-1" points="151.9 25.22 157.6 25.22 157.6 26.29 155.36 26.29 155.36 32.27 154.13 32.27 154.13 26.29 151.9 26.29 151.9 25.22"></polygon><path class="cls-1" d="M159.42,28.43h2a1.29,1.29,0,0,0,.9-.28,1.1,1.1,0,0,0,.3-.84,1.23,1.23,0,0,0-.1-.55.73.73,0,0,0-.27-.33,1,1,0,0,0-.39-.16,2.32,2.32,0,0,0-.46,0h-2Zm-1.24-3.21h3.37a2.58,2.58,0,0,1,1.74.51,1.73,1.73,0,0,1,.58,1.4,2,2,0,0,1-.14.83,1.81,1.81,0,0,1-.35.53,1.28,1.28,0,0,1-.39.3l-.28.11v0a1.62,1.62,0,0,1,.34.1,1,1,0,0,1,.34.25,1.4,1.4,0,0,1,.26.45,2,2,0,0,1,.11.69,6.47,6.47,0,0,0,.09,1.13,1.52,1.52,0,0,0,.29.73h-1.32a1.09,1.09,0,0,1-.16-.51,4.84,4.84,0,0,1,0-.53,5,5,0,0,0-.06-.83,1.53,1.53,0,0,0-.21-.58.9.9,0,0,0-.43-.34,1.77,1.77,0,0,0-.7-.11h-1.81v2.9h-1.24Z"></path><path class="cls-1" d="M167.91,26.06a2,2,0,0,0-1,.23,1.79,1.79,0,0,0-.67.61,2.68,2.68,0,0,0-.38.86,4.1,4.1,0,0,0,0,2,2.84,2.84,0,0,0,.38.87,1.85,1.85,0,0,0,.67.6,2,2,0,0,0,1,.23,2,2,0,0,0,1-.23,2,2,0,0,0,.67-.6,3.1,3.1,0,0,0,.38-.87,4.1,4.1,0,0,0,0-2,2.92,2.92,0,0,0-.38-.86,2,2,0,0,0-.67-.61,2,2,0,0,0-1-.23m0-1a3.2,3.2,0,0,1,1.41.29,3.26,3.26,0,0,1,1.06.8,3.76,3.76,0,0,1,.67,1.17,4.56,4.56,0,0,1,0,2.86,3.76,3.76,0,0,1-.67,1.17,3,3,0,0,1-1.06.79,3.21,3.21,0,0,1-1.41.3,3.25,3.25,0,0,1-1.42-.3,3,3,0,0,1-1.06-.79,3.55,3.55,0,0,1-.66-1.17,4.38,4.38,0,0,1,0-2.86,3.55,3.55,0,0,1,.66-1.17,3.15,3.15,0,0,1,2.48-1.09"></path><path class="cls-1" d="M143,38.74a1.6,1.6,0,0,0,.13.69,1.37,1.37,0,0,0,.39.47,1.49,1.49,0,0,0,.57.26,2.5,2.5,0,0,0,.69.09,2,2,0,0,0,.69-.1,1.38,1.38,0,0,0,.47-.24,1,1,0,0,0,.33-.73.86.86,0,0,0-.18-.6,1.13,1.13,0,0,0-.4-.27,8.43,8.43,0,0,0-.87-.26l-1.23-.32a2.68,2.68,0,0,1-.76-.31,1.84,1.84,0,0,1-.48-.43,1.8,1.8,0,0,1-.25-.5,2,2,0,0,1-.07-.55,1.82,1.82,0,0,1,.22-.92,1.9,1.9,0,0,1,.59-.64,2.34,2.34,0,0,1,.83-.38,3.31,3.31,0,0,1,.93-.13,3.49,3.49,0,0,1,1,.15,2.38,2.38,0,0,1,.86.42,2.06,2.06,0,0,1,.81,1.68h-1.24a1.17,1.17,0,0,0-.46-1,1.84,1.84,0,0,0-1.06-.28,2.25,2.25,0,0,0-.44,0,1.34,1.34,0,0,0-.41.15.84.84,0,0,0-.31.28.73.73,0,0,0-.13.45.75.75,0,0,0,.23.58,1.54,1.54,0,0,0,.61.32l.31.09L145,37l.65.17.46.13a2.29,2.29,0,0,1,.61.29,1.9,1.9,0,0,1,.42.43,1.59,1.59,0,0,1,.26.52,1.79,1.79,0,0,1,.08.55,2,2,0,0,1-.24,1,2.09,2.09,0,0,1-.63.69,2.8,2.8,0,0,1-.9.39,4.46,4.46,0,0,1-1,.12,4.11,4.11,0,0,1-1.13-.15,2.52,2.52,0,0,1-.93-.45,2.31,2.31,0,0,1-.63-.78,2.65,2.65,0,0,1-.25-1.13Z"></path><polygon class="cls-1" points="149.98 38.32 147.34 34.04 148.77 34.04 150.63 37.2 152.47 34.04 153.85 34.04 151.22 38.32 151.22 41.09 149.98 41.09 149.98 38.32"></polygon><path class="cls-1" d="M154.91,38.74a1.6,1.6,0,0,0,.14.69,1.34,1.34,0,0,0,.38.47,1.64,1.64,0,0,0,.57.26,2.58,2.58,0,0,0,.7.09,2,2,0,0,0,.69-.1,1.33,1.33,0,0,0,.46-.24.94.94,0,0,0,.26-.34,1.09,1.09,0,0,0,.08-.39.86.86,0,0,0-.19-.6,1.05,1.05,0,0,0-.4-.27,8.43,8.43,0,0,0-.87-.26l-1.23-.32a2.6,2.6,0,0,1-.75-.31,1.84,1.84,0,0,1-.48-.43,1.56,1.56,0,0,1-.25-.5,2,2,0,0,1-.08-.55,1.82,1.82,0,0,1,.23-.92,1.87,1.87,0,0,1,.58-.64,2.42,2.42,0,0,1,.83-.38,3.33,3.33,0,0,1,.94-.13,3.53,3.53,0,0,1,1,.15,2.55,2.55,0,0,1,.86.42,2.21,2.21,0,0,1,.58.71,2,2,0,0,1,.22,1H158a1.21,1.21,0,0,0-.47-1,1.78,1.78,0,0,0-1.05-.28,2.35,2.35,0,0,0-.45,0,1.34,1.34,0,0,0-.41.15.92.92,0,0,0-.31.28.79.79,0,0,0-.12.45.72.72,0,0,0,.23.58,1.41,1.41,0,0,0,.61.32l.31.09.6.16.66.17.46.13a2.09,2.09,0,0,1,.6.29,2.19,2.19,0,0,1,.43.43,1.78,1.78,0,0,1,.25.52,1.81,1.81,0,0,1,.09.55,2,2,0,0,1-.24,1,2.12,2.12,0,0,1-.64.69,2.62,2.62,0,0,1-.9.39,4.31,4.31,0,0,1-1,.12,4.24,4.24,0,0,1-1.14-.15,2.55,2.55,0,0,1-.92-.45,2.22,2.22,0,0,1-.64-.78,2.65,2.65,0,0,1-.24-1.13Z"></path><polygon class="cls-1" points="159.61 34.04 165.32 34.04 165.32 35.11 163.08 35.11 163.08 41.09 161.84 41.09 161.84 35.11 159.61 35.11 159.61 34.04"></polygon><polygon class="cls-1" points="165.9 34.04 170.97 34.04 170.97 35.11 167.13 35.11 167.13 36.95 170.68 36.95 170.68 37.96 167.13 37.96 167.13 40.02 171.04 40.02 171.04 41.09 165.9 41.09 165.9 34.04"></polygon><polygon class="cls-1" points="180.37 34.04 185.44 34.04 185.44 35.11 181.6 35.11 181.6 36.95 185.16 36.95 185.16 37.96 181.6 37.96 181.6 40.02 185.51 40.02 185.51 41.09 180.37 41.09 180.37 34.04"></polygon><polygon class="cls-1" points="171.89 34.04 173.63 34.04 175.57 39.56 175.59 39.56 177.49 34.04 179.21 34.04 179.21 41.09 178.03 41.09 178.03 35.65 178.01 35.65 176.06 41.09 175.04 41.09 173.09 35.65 173.07 35.65 173.07 41.09 171.89 41.09 171.89 34.04"></polygon><path class="cls-1" d="M149.07,44.21h0l1.06,3H148ZM148.43,43l-2.7,7H147l.66-1.87h2.82l.66,1.87h1.32l-2.72-7Z"></path><path class="cls-1" d="M152.61,43h1.23v4.11a6,6,0,0,0,0,.72,1.7,1.7,0,0,0,.19.65,1.22,1.22,0,0,0,.5.48,2.37,2.37,0,0,0,1.86,0,1.22,1.22,0,0,0,.5-.48,1.7,1.7,0,0,0,.19-.65,6,6,0,0,0,0-.72V43h1.23v4.51a3,3,0,0,1-.21,1.18,2.22,2.22,0,0,1-.58.85,2.74,2.74,0,0,1-.92.51,4.43,4.43,0,0,1-2.36,0,2.74,2.74,0,0,1-.92-.51,2.34,2.34,0,0,1-.58-.85,3,3,0,0,1-.21-1.18Z"></path><path class="cls-1" d="M160.4,47.7a1.6,1.6,0,0,0,.13.69,1.37,1.37,0,0,0,.39.47,1.49,1.49,0,0,0,.57.26,2.5,2.5,0,0,0,.69.09,2,2,0,0,0,.69-.1,1.38,1.38,0,0,0,.47-.24,1,1,0,0,0,.33-.73.86.86,0,0,0-.18-.6,1.28,1.28,0,0,0-.4-.27,8.43,8.43,0,0,0-.87-.26L161,46.69a2.56,2.56,0,0,1-.76-.31,1.84,1.84,0,0,1-.48-.43,1.68,1.68,0,0,1-.25-.5,2,2,0,0,1-.07-.55,1.82,1.82,0,0,1,.22-.92,1.9,1.9,0,0,1,.59-.64,2.52,2.52,0,0,1,.83-.38,3.72,3.72,0,0,1,.93-.13,3.49,3.49,0,0,1,1,.15,2.25,2.25,0,0,1,.86.43,2,2,0,0,1,.59.7,2.13,2.13,0,0,1,.22,1h-1.24a1.17,1.17,0,0,0-.46-1,1.84,1.84,0,0,0-1.06-.28,2.25,2.25,0,0,0-.44,0,1.34,1.34,0,0,0-.41.15.93.93,0,0,0-.31.28.73.73,0,0,0-.13.45.75.75,0,0,0,.23.58,1.42,1.42,0,0,0,.61.32l.31.09.61.16.65.17.46.13a2.29,2.29,0,0,1,.61.29,1.9,1.9,0,0,1,.42.43,1.59,1.59,0,0,1,.26.52,1.79,1.79,0,0,1,.08.55,2,2,0,0,1-.24,1,2.09,2.09,0,0,1-.63.69,2.8,2.8,0,0,1-.9.39,4.46,4.46,0,0,1-1,.12,4.54,4.54,0,0,1-1.13-.14,2.54,2.54,0,0,1-.93-.46,2.22,2.22,0,0,1-.63-.78,2.65,2.65,0,0,1-.25-1.13Z"></path><polygon class="cls-1" points="165.1 43 165.1 44.07 167.33 44.07 167.33 50.05 168.56 50.05 168.56 44.07 170.8 44.07 170.8 43 165.1 43"></polygon><path class="cls-1" d="M172.62,46.21h2a1.35,1.35,0,0,0,.9-.28,1.11,1.11,0,0,0,.3-.85,1.21,1.21,0,0,0-.1-.54.71.71,0,0,0-.27-.34,1,1,0,0,0-.39-.15,2.32,2.32,0,0,0-.46,0h-2ZM171.38,43h3.37a2.62,2.62,0,0,1,1.74.5,1.77,1.77,0,0,1,.58,1.41,2,2,0,0,1-.14.83,1.81,1.81,0,0,1-.35.53,1.23,1.23,0,0,1-.39.29l-.28.12v0a1.18,1.18,0,0,1,.34.1,1,1,0,0,1,.34.25,1.4,1.4,0,0,1,.26.45,1.92,1.92,0,0,1,.11.69,6.55,6.55,0,0,0,.09,1.13,1.52,1.52,0,0,0,.29.73H176a1.13,1.13,0,0,1-.16-.51,4.84,4.84,0,0,1,0-.53,5,5,0,0,0-.06-.83,1.58,1.58,0,0,0-.21-.59,1,1,0,0,0-.43-.34,2,2,0,0,0-.7-.1h-1.81v2.9h-1.24Z"></path><rect class="cls-1" x="178.16" y="43" width="1.23" height="7.04"></rect><path class="cls-1" d="M183.25,44.21h0l1.05,3h-2.15ZM182.62,43l-2.71,7h1.27l.67-1.87h2.81l.66,1.87h1.32l-2.71-7Z"></path><path class="cls-2" d="M10.57,50.21H1.23A1.23,1.23,0,0,1,.08,48.55L16.26,5.7a8.33,8.33,0,0,1,3.49-4.42A11.67,11.67,0,0,1,25.53,0a11.45,11.45,0,0,1,5.7,1.28A8.07,8.07,0,0,1,34.66,5.7L50.28,48.56a1.23,1.23,0,0,1-1.15,1.65H39.7a1.21,1.21,0,0,1-1.15-.81L26.1,14.93c-.21-.52-.39-.91-.93-.91s-.71.4-.92.91L11.73,49.4a1.23,1.23,0,0,1-1.16.81"></path><polygon class="cls-2" points="116.39 32.63 114.36 38.97 107.45 38.97 112.97 43.17 110.88 49.8 116.49 45.7 122.09 49.8 120 43.17 125.52 38.97 118.61 38.97 116.58 32.61 116.49 32.37 116.39 32.63"></polygon><path class="cls-2" d="M101.89,50.21H92.55a1.22,1.22,0,0,1-1.15-1.66L107.58,5.7a8.33,8.33,0,0,1,3.49-4.42A11.63,11.63,0,0,1,116.84,0a11.46,11.46,0,0,1,5.71,1.28A8,8,0,0,1,126,5.7L141.6,48.56a1.23,1.23,0,0,1-1.16,1.65H131a1.23,1.23,0,0,1-1.16-.81L117.42,14.93c-.21-.52-.4-.91-.93-.91s-.71.4-.92.91L103,49.4a1.21,1.21,0,0,1-1.15.81"></path><path class="cls-1" d="M92.06,29.48a12.22,12.22,0,0,0-2.72-5.09A14.13,14.13,0,0,0,84,20.83a21.83,21.83,0,0,0-8.29-1.33H64.91A9,9,0,0,1,62,19.12a4,4,0,0,1-1.54-.91A3,3,0,0,1,59.75,17a5.51,5.51,0,0,1-.25-1.65,4.33,4.33,0,0,1,1.06-3.06,4.67,4.67,0,0,1,3.53-1.1H88a1.23,1.23,0,0,0,1.23-1.23V1.23A1.23,1.23,0,0,0,88,0H64.36a20.53,20.53,0,0,0-7.08,1.1,13.32,13.32,0,0,0-5,3.19,12.43,12.43,0,0,0-2.87,4.88,19.32,19.32,0,0,0-.86,5.87,20.82,20.82,0,0,0,.7,5.28,12.58,12.58,0,0,0,2.63,5A13.29,13.29,0,0,0,57,28.87a22,22,0,0,0,8.15,1.3H76a9.23,9.23,0,0,1,3.06.41,4.37,4.37,0,0,1,1.69,1,3,3,0,0,1,.8,1.3,5.65,5.65,0,0,1,.28,1.77,4.55,4.55,0,0,1-1.15,3.25,5.06,5.06,0,0,1-3.79,1.19H51.16A1.23,1.23,0,0,0,50,40.7l3.16,8.7a1.21,1.21,0,0,0,1.15.81H76.57a20.66,20.66,0,0,0,7.27-1.14,13.69,13.69,0,0,0,5.09-3.26,12.77,12.77,0,0,0,2.93-4.93,19.19,19.19,0,0,0,.9-6,21.77,21.77,0,0,0-.7-5.41"></path></g></g></svg> 