<?xml version="1.0" encoding="UTF-8" standalone="no"?>
<svg
   viewBox="98.4171 320.952 135.48077 151.80132"
   version="1.1"
   id="svg1"
   sodipodi:docname="ncbj.svg"
   width="135.48077"
   height="151.80132"
   inkscape:version="1.4.2 (ebf0e940, 2025-05-08)"
   xmlns:inkscape="http://www.inkscape.org/namespaces/inkscape"
   xmlns:sodipodi="http://sodipodi.sourceforge.net/DTD/sodipodi-0.dtd"
   xmlns="http://www.w3.org/2000/svg"
   xmlns:svg="http://www.w3.org/2000/svg">
  <defs
     id="defs1" />
  <sodipodi:namedview
     id="namedview1"
     pagecolor="#ffffff"
     bordercolor="#666666"
     borderopacity="1.0"
     inkscape:showpageshadow="2"
     inkscape:pageopacity="0.0"
     inkscape:pagecheckerboard="0"
     inkscape:deskcolor="#d1d1d1"
     inkscape:zoom="0.92585582"
     inkscape:cx="301.88286"
     inkscape:cy="29.702249"
     inkscape:window-width="1328"
     inkscape:window-height="886"
     inkscape:window-x="48"
     inkscape:window-y="39"
     inkscape:window-maximized="0"
     inkscape:current-layer="svg1" />
  <path
     d="m 216.43335,396.85199 c -2.32267,-2.39066 -9.788,-9.65733 -16.84533,-14.508 19.72799,23.48934 18.34399,37.268 15.41866,42.34 -2.784,4.81734 -9.45867,6.69867 -18.68933,5.92534 -0.0413,0.22 -1.55067,7.22533 -2.44133,10.364 19.00933,4.512 32.88399,2.616 37.95333,-6.17067 5.208,-9.008 -1.25867,-23.36 -15.396,-37.95067 m -57.42133,3.29067 c 0,1.36533 1.11333,2.47067 2.47466,2.47067 1.37067,0 2.476,-1.10534 2.476,-2.47067 0,-1.372 -1.10533,-2.47067 -2.476,-2.47067 -1.36133,0 -2.47466,1.09867 -2.47466,2.47067 m 7.144,-15.064 c 6.50266,0 11.776,5.27867 11.776,11.77333 0,6.5 -5.27334,11.78 -11.776,11.78 -6.50134,0 -11.772,-5.28 -11.772,-11.78 0,-6.49466 5.27066,-11.77333 11.772,-11.77333 m -30.71467,17.428 c 14.02933,11.432 27.19333,19.388 45.97733,25.176 -1.00933,3.444 -3.12266,8.576 -3.19733,8.73467 -32.336,-11.82134 -53.702,-30.33867 -62.45733,-39.56534 -13.9828,-14.74133 -20.603074,-28.93866 -15.402,-37.94666 5.202,-9.01467 25.04266,-14.02534 61.49266,1.91733 -28.59106,-6.612 -40.79066,0.91333 -43.63066,8.392 -5.49174,14.468 14.99893,31.484 17.21733,33.292"
     style="fill:#e01546;fill-opacity:1;fill-rule:nonzero;stroke:none;stroke-width:0.133333"
     id="path12" />
  <path
     d="m 231.82935,358.90399 c -5.19867,-9.01466 -20.86667,-10.58933 -40.56533,-5.63733 -3.23334,0.81067 -32.75334,7.62667 -65.7624,34.42933 1.42386,2.21334 5.32653,6.46 6.00053,7.10934 23.2752,-21.82934 50.36587,-29.068 52.9192,-29.696 17.60533,-4.31467 26.46,-0.68667 30.39066,3.65866 7.468,8.244 4.74134,21.89067 4.29734,24.82934 13.488,-14.25067 17.808,-25.888 12.72,-34.69334 m -94.62533,81.512 c -19.70454,4.95334 -31.63947,3.404 -36.84147,-5.61333 -5.057871,-8.75467 -0.1152,-21.43867 13.21613,-35.59333 2.04107,2.376 5.22347,5.05866 7.85734,7.156 -5.12974,7.49866 -5.41,13.81466 -4.12454,19.232 2.10254,8.82 10.19067,13.36 19.89254,14.81866"
     style="fill:#9e9c9d;fill-opacity:1;fill-rule:nonzero;stroke:none;stroke-width:0.133333"
     id="path14" />
  <path
     d="m 194.23468,366.70666 c -0.11733,0.0133 -2.82133,0 -8.94,1.592 8.676,39.44933 -3.092,67.15333 -4.05866,69.256 -3.56,7.72267 -9.42,13.81067 -15.792,15.512 -15.42267,4.11867 -24.07467,-23.50933 -28.90134,-34.324 5.488,39.916 19.148,54.01066 29.55734,54.01066 10.40533,0 19.60266,-12.76933 25.164,-32.31333 -0.004,-0.001 -0.0107,-0.004 -0.0187,-0.004 9.65333,-35.63333 4.34667,-67.16666 2.98933,-73.72933 m -51.57333,-17.46 c 5.56,-19.53867 13.02933,-28.29466 23.43867,-28.29466 10.07066,0 18.45333,10.42133 24.06533,28.90266 -2.67733,0.66533 -10.53467,2.99867 -10.544,3.004 -3.912,-7.78667 -13.31467,-21.768 -18.288,-23.98933 -9.34,-4.176 -12.70533,11.036 -18.672,20.37733"
     style="fill:#4d494a;fill-opacity:1;fill-rule:nonzero;stroke:none;stroke-width:0.133333"
     id="path16" />
</svg>
