<?xml version="1.0" encoding="utf-8"?>
<!-- Generator: Adobe Illustrator 27.0.1, SVG Export Plug-In . SVG Version: 6.00 Build 0)  -->
<svg version="1.1" id="Warstwa_1" xmlns="http://www.w3.org/2000/svg" xmlns:xlink="http://www.w3.org/1999/xlink" x="0px" y="0px"
	 viewBox="0 0 425.2 425.2" style="enable-background:new 0 0 425.2 425.2;" xml:space="preserve">
<style type="text/css">
	.st0{fill:#190A5C;}
</style>
<g>
	<path class="st0" d="M224.9,129.7C224.9,129.7,224.9,129.7,224.9,129.7C225,129.7,225,129.7,224.9,129.7z"/>
	<path class="st0" d="M176.3,146.6c0,0-1.6-12.3,13.1-21.9c13.5-8.8,39.1-13.3,39.1-13.3c8.6,0.2,13.8,4.1,14.2,8.1
		c0.4,4-4.6,8.1-12.4,10.8c0,0-0.1,0-0.1,0c0.1,0,0.1,0,0,0.1c-4.5,1.1-9.3,2.8-9.4,6.8c-0.1,3.9,4.5,7.2,8.5,7.3l3.2-0.6
		c3.6-0.9,22.5-6.5,24.8-23.2c1.6-11.7-12.6-17-13.8-17.7c-26.6-10.1-63.6,10.8-72.7,26.6c-13,22.6,10.7,54.2,57.1,55.3
		C196.4,180.9,176,159.2,176.3,146.6z"/>
	<path class="st0" d="M230.2,130.3C230.2,130.3,230.2,130.3,230.2,130.3C230.1,130.3,230.2,130.3,230.2,130.3z"/>
	<path class="st0" d="M215.4,78.9c10.6,0,20.5,1,30.5,2.9c9.5,2.4,18.3,7.4,24.9,14.7c5.3,5.9,8.2,12,8.1,16.7
		c0,0,1.6,12.3-13.1,21.9c-13.5,8.8-39.1,13.3-39.1,13.3c-8.6-0.2-13.8-4.1-14.2-8.1c-0.4-4,4.6-8.1,12.4-10.8c0,0,0.1,0,0.1,0
		c-0.1,0-0.1,0,0-0.1c4.5-1.1,9.3-2.8,9.4-6.8c0.1-3.9-4.5-7.2-8.5-7.3l-3.2,0.6c-3.6,0.9-22.5,6.5-24.8,23.2
		c-1.6,11.7,12.6,17,13.8,17.7c26.6,10.1,63.6-10.8,72.7-26.6c11-19.2-3.5-44.6-37.3-52.8l0,0c-0.3-0.1-0.7-0.1-1-0.2
		c-4.6-1.1-9.7-1.8-15-2.1c-5.2-0.5-10.4-0.8-15.7-0.8c0,0,0,0-0.1,0c0,0,0,0,0,0c-26.9,0-52.3,6.5-74.7,18
		C87.5,119.7,51.1,175,51.1,238.8c0,30.3,10.2,58.8,24.5,83.2H78c-14.8-24.3-24-52.6-24-83.2C54,150,126.6,78.9,215.4,78.9z"/>
	<path class="st0" d="M304,100.2l2.2,7.6c43.8,28.7,70.3,74.6,70.3,130.9c0,30.5-7.7,58.9-22.5,83.2h3
		c14.3-24.4,22.6-52.8,22.6-83.2C379.7,180.9,349.2,129.5,304,100.2z"/>
	<path class="st0" d="M265.9,185c12.9,0,23.4,12,23.4,26.9c0-14.9,10.5-26.9,23.4-26.9c-12.9,0-23.4-12-23.4-26.9
		C289.3,172.9,278.8,185,265.9,185z"/>
	<path class="st0" d="M139.5,273.2c-19.9,0-33.6,14.7-33.6,33.3c0,23.5,17.6,34.1,33.6,34.1c15.8,0,33.5-10.6,33.5-33.5
		C173,284,155.4,273.2,139.5,273.2z M144.3,335.1c-14.7,0-25.6-16.6-26.8-33.9c-0.9-14,5.7-23.1,17.4-23.1
		c14.9,0,25.3,17.3,26.5,35.7C162.2,325.2,157.5,335.1,144.3,335.1z"/>
	<path class="st0" d="M222.2,335.6c-16.8,0-26.6-15.4-26.6-32.1c0-17.2,9.7-26.3,23.5-26.3c8.9,0,17.8,5.3,21.3,14.2l1-0.3
		l-0.4-11.4l-0.1-2.2c-4.9-3.3-14.5-4.6-21.4-4.6c-22.9,0-37.9,15.6-37.9,34.5c0,20.9,13.7,32.5,36.1,32.5c11.4,0,18.5-2.2,23.5-4.5
		l1.5-13.4l0.1-1.2l-1.2-0.2C238.5,329.8,231.8,335.6,222.2,335.6z"/>
	<path class="st0" d="M313.1,274.8h-3.4L290.1,309l-20.6-34.2h-3.4H256h-3.4v1.3c4.2,1.4,6.1,4.6,6.1,15.6v34.9
		c0,6.5-0.6,9.2-3.6,10.2v1.3h3.4h8.7h3.4v-1.3c-4.7-1.4-6.9-4.6-6.9-15.6v-32l19.3,31.7h2.1h1.3h2.1l18.3-32.1v37.8
		c0,6.5-0.6,9.2-3.6,10.2v1.3h3.4H320h3.4v-1.3c-3-1-3.6-3.7-3.6-10.2v-34.9c0-11,2-14.2,6.1-15.6v-1.3h-3.4H313.1z"/>
</g>
</svg>
