<?xml version="1.0" encoding="utf-8"?>
<!-- Generator: Adobe Illustrator 27.0.1, SVG Export Plug-In . SVG Version: 6.00 Build 0)  -->
<svg version="1.1" id="Warstwa_1" xmlns="http://www.w3.org/2000/svg" xmlns:xlink="http://www.w3.org/1999/xlink" x="0px" y="0px"
	 viewBox="0 0 425.2 425.2" style="enable-background:new 0 0 425.2 425.2;" xml:space="preserve">
<style type="text/css">
	.st0{fill:#190A5C;}
	.st1{fill:#FFFFFF;}
</style>
<g>
	<path class="st0" d="M213.8,36.4c-97.3,0-176.2,78.9-176.2,176.2c0,97.3,78.9,176.2,176.2,176.2c97.3,0,176.2-78.9,176.2-176.2
		C390,115.3,311.1,36.4,213.8,36.4z M213.8,353.6c-77.8,0-141-63.1-141-141s63.1-141,141-141c77.8,0,141,63.1,141,141
		C354.8,290.5,291.6,353.6,213.8,353.6z"/>
	<g>
		<path class="st1" d="M156.5,359c0.4-1.2,0.4-2.2,0.1-3.1c-0.3-0.9-1-1.6-2-2.1c-0.6-0.3-1.3-0.5-2-0.4c-0.7,0-1.3,0.2-2,0.5
			c-0.6,0.3-1.2,0.8-1.8,1.4c-0.6,0.6-1,1.3-1.4,2.1c-0.5,1.1-0.8,2.2-0.8,3.3c0,1.1,0.2,2,0.7,2.8c0.5,0.8,1.2,1.4,2.1,1.9
			c0.8,0.4,1.7,0.6,2.6,0.6c1,0,1.9-0.2,2.7-0.7l0.4,0.8c-0.9,0.5-1.8,0.8-2.6,0.9c-0.8,0.1-1.6,0.1-2.3-0.1
			c-0.7-0.2-1.3-0.4-1.8-0.6c-0.9-0.4-1.7-1-2.3-1.7c-0.6-0.7-1.1-1.5-1.4-2.4c-0.3-0.9-0.4-1.8-0.3-2.7c0.1-0.9,0.3-1.9,0.8-2.8
			c0.4-0.9,1-1.7,1.6-2.4c0.7-0.7,1.4-1.3,2.3-1.7c0.9-0.4,1.8-0.6,2.8-0.6c1,0,2,0.2,3.1,0.8c0.6,0.3,1.2,0.7,1.7,1.1
			c0.5,0.5,1,1,1.4,1.6l0.4-1l1.2,0.6l-2.1,4.3L156.5,359z"/>
		<path class="st1" d="M158.4,370.5l0.3-0.9c0.4,0.1,0.7,0.1,1,0c0.3-0.1,0.6-0.4,0.8-0.7c0.3-0.3,0.6-0.7,0.9-1l7.6-9.5l0.8,0.3
			l0.6,12.4c0,0.3,0,0.7,0,1.1s-0.1,0.9-0.2,1.1c0.2,0,0.5,0.1,0.7,0.2c0.2,0.1,0.4,0.1,0.6,0.2l-0.4,1.1l-4.8-1.6l0.3-0.9
			c0.5,0.1,0.8,0.1,1,0c0.2-0.1,0.3-0.4,0.4-0.6c0.1-0.3,0.1-0.6,0.1-0.9l-0.1-1.8l-4.8-1.5l-1.1,1.5c-0.2,0.2-0.3,0.5-0.5,0.7
			c-0.2,0.2-0.3,0.4-0.5,0.6c0.2,0.1,0.5,0.1,0.8,0.2c0.3,0.1,0.5,0.2,0.7,0.2l-0.4,1.1L158.4,370.5z M164,366.5l4.1,1.4l-0.1-3.7
			c0-0.5,0-1,0-1.4c0-0.5,0-0.9,0-1.4l0,0c-0.2,0.3-0.5,0.6-0.7,1c-0.3,0.3-0.6,0.7-0.9,1.1L164,366.5z"/>
		<path class="st1" d="M184.8,378c-0.3-1.4-0.6-2.8-1-4.1c-0.3-1.4-0.6-2.8-0.9-4.1c-0.1-0.4-0.2-0.9-0.3-1.3
			c-0.1-0.5-0.2-1-0.3-1.5c-0.1-0.5-0.2-1.1-0.2-1.6c-0.1,0.4-0.1,0.7-0.2,1c-0.1,0.3-0.1,0.6-0.2,0.9c-0.1,0.4-0.2,0.9-0.3,1.5
			c-0.1,0.6-0.2,1.1-0.4,1.8c-0.1,0.6-0.3,1.2-0.4,1.9c-0.1,0.6-0.2,1.2-0.4,1.8c-0.1,0.3-0.1,0.6-0.2,1c-0.1,0.3-0.1,0.6-0.2,0.8
			c0.2,0,0.5,0,0.8,0.1c0.3,0,0.5,0.1,0.7,0.1l-0.2,1.1l-4.1-0.8l0.2-0.9c0.4,0.1,0.7,0,0.9-0.1c0.2-0.1,0.4-0.3,0.5-0.5
			c0.1-0.3,0.2-0.6,0.3-1l1.9-8.7c0.1-0.3,0.1-0.6,0.2-0.9c0.1-0.3,0.1-0.6,0.2-0.8c-0.2,0-0.5-0.1-0.8-0.1c-0.3,0-0.5-0.1-0.7-0.1
			l0.2-1.1l3.6,0.6l1.9,8.6c0.1,0.4,0.2,0.8,0.3,1.3c0.1,0.4,0.2,0.9,0.3,1.3c0.1,0.4,0.2,0.8,0.3,1.2l0,0c0.2-0.4,0.5-0.8,0.8-1.2
			c0.3-0.5,0.5-0.9,0.7-1.2c0.8-1.4,1.7-2.7,2.6-4.1c0.9-1.4,1.7-2.7,2.6-4.2l3.6,0.7l-0.2,0.9c-0.3-0.1-0.6-0.1-0.9,0
			c-0.2,0.1-0.4,0.3-0.6,0.5c-0.2,0.3-0.3,0.7-0.3,1.3l-1.1,8.8c0,0.3-0.1,0.5-0.1,0.8c-0.1,0.3-0.1,0.5-0.1,0.6
			c0.2,0,0.5,0.1,0.8,0.1c0.3,0,0.5,0.1,0.7,0.1l-0.2,1.1l-4.9-0.9l0.2-0.9c0.4,0.1,0.7,0,0.9-0.1s0.4-0.3,0.5-0.6
			c0.1-0.3,0.2-0.7,0.3-1.2l0.8-6c0-0.2,0.1-0.4,0.1-0.7c0-0.3,0.1-0.6,0.1-0.9c0-0.3,0.1-0.6,0.1-0.9c-0.1,0.1-0.1,0.2-0.2,0.3
			c-0.1,0.1-0.1,0.2-0.2,0.3l-6.4,10.3L184.8,378z"/>
		<path class="st1" d="M201.2,380.1l0-0.9c0.5,0,0.8-0.1,1-0.3c0.2-0.2,0.3-0.4,0.4-0.7c0.1-0.3,0.1-0.7,0.1-1.3l0.3-8.6
			c0-0.3,0-0.6,0.1-0.9c0-0.3,0-0.5,0.1-0.7c-0.2,0-0.5,0-0.8,0c-0.3,0-0.5,0-0.7,0l0-1.1l5.1,0.2l0,0.9c-0.4,0-0.8,0.1-1,0.2
			c-0.2,0.2-0.4,0.4-0.4,0.7c-0.1,0.3-0.1,0.7-0.1,1.3l-0.1,3.3l1.5,0.1l2.4-3.5c0.2-0.3,0.5-0.6,0.7-1c0.3-0.3,0.5-0.6,0.8-0.8
			c-0.2,0-0.4,0-0.7,0c-0.2,0-0.4,0-0.6,0l0-1.1l4.6,0.2l0,0.9c-0.5,0-1,0.1-1.4,0.2c-0.4,0.1-0.8,0.3-1.3,0.7
			c-0.4,0.3-0.9,0.8-1.3,1.5l-2.1,3.1c0.3,0.2,0.6,0.5,0.9,0.8c0.2,0.3,0.4,0.6,0.7,0.9l2.1,3.1c0.4,0.6,0.8,1.1,1.1,1.4
			s0.6,0.6,0.9,0.7c0.3,0.1,0.6,0.2,0.9,0.2l0,0.9l-2.7-0.1c-0.1,0-0.3-0.1-0.5-0.3c-0.2-0.2-0.5-0.5-0.7-0.8
			c-0.3-0.3-0.5-0.7-0.7-1l-2.2-3.3c-0.2-0.3-0.5-0.6-0.7-1c-0.2-0.3-0.5-0.5-0.7-0.7l-0.9,0l-0.1,4.1c0,0.4,0,0.7,0,1
			c0,0.3,0,0.5-0.1,0.7c0.2,0,0.5,0,0.8,0c0.3,0,0.5,0,0.7,0l0,1.1L201.2,380.1z"/>
		<path class="st1" d="M239.1,377.2c0.4-0.1,0.7-0.3,0.9-0.5c0.2-0.2,0.2-0.5,0.2-0.8c0-0.3-0.1-0.8-0.2-1.2l-1.8-8.4
			c-0.1-0.3-0.1-0.6-0.2-0.9c0-0.3-0.1-0.5-0.1-0.7c-0.2,0.1-0.5,0.1-0.7,0.2c-0.3,0.1-0.5,0.1-0.7,0.2l-0.2-1.1
			c0.8-0.2,1.6-0.4,2.4-0.6c0.8-0.2,1.7-0.4,2.5-0.6c1.3-0.3,2.4-0.4,3.3-0.2c0.9,0.1,1.7,0.4,2.3,0.9c0.6,0.5,1,1.2,1.2,2.2
			c0.1,0.5,0.2,1.1,0.1,1.7c-0.1,0.6-0.3,1.2-0.7,1.8c-0.4,0.6-1,1.1-1.7,1.6c-0.8,0.5-1.8,0.9-3,1.1c-0.1,0-0.3,0.1-0.4,0.1
			c-0.2,0-0.3,0.1-0.5,0.1l0.6,2.5c0.1,0.4,0.1,0.7,0.2,1c0.1,0.3,0.1,0.5,0.1,0.7c0.2-0.1,0.4-0.1,0.6-0.2c0.2-0.1,0.4-0.1,0.6-0.2
			c0.2-0.1,0.4-0.1,0.6-0.2l0.2,1.1l-5.3,1.2L239.1,377.2z M241.4,371c0.2,0,0.4-0.1,0.6-0.1c0.2,0,0.4-0.1,0.6-0.1
			c0.8-0.2,1.4-0.5,1.9-0.9c0.5-0.4,0.9-0.9,1.1-1.5c0.2-0.6,0.2-1.3,0.1-2c-0.1-0.6-0.4-1.2-0.6-1.6c-0.3-0.4-0.6-0.7-1-0.9
			c-0.4-0.2-0.8-0.3-1.3-0.3c-0.5,0-1,0-1.5,0.1c-0.4,0.1-0.7,0.2-0.8,0.4c-0.2,0.2-0.2,0.5-0.2,0.8c0,0.3,0.1,0.7,0.2,1.2
			L241.4,371z"/>
		<path class="st1" d="M253.7,374.8l-0.3-0.9c0.4-0.1,0.7-0.3,0.8-0.6c0.1-0.3,0.2-0.6,0.2-1c0-0.4,0-0.9,0.1-1.4l0.3-12.2l0.8-0.3
			l8,9.6c0.2,0.2,0.4,0.5,0.7,0.9c0.3,0.4,0.5,0.7,0.5,1c0.2-0.1,0.4-0.2,0.6-0.3c0.2-0.1,0.4-0.2,0.6-0.2l0.4,1.1l-4.8,1.6
			l-0.3-0.9c0.5-0.2,0.7-0.4,0.8-0.6c0.1-0.2,0.1-0.5-0.1-0.8c-0.1-0.3-0.3-0.5-0.5-0.8l-1.1-1.4l-4.8,1.7l0,1.9c0,0.3,0,0.6,0,0.8
			c0,0.3,0,0.5,0,0.8c0.2-0.1,0.5-0.2,0.7-0.3s0.5-0.2,0.7-0.3l0.4,1.1L253.7,374.8z M255.8,368.3l4.1-1.4l-2.3-2.9
			c-0.3-0.4-0.6-0.8-0.9-1.1c-0.3-0.4-0.6-0.7-0.8-1.1l0,0c0,0.4,0,0.8,0,1.2c0,0.4,0,0.9,0,1.4L255.8,368.3z"/>
		<path class="st1" d="M282.3,363.6l-11.4-5.8c-0.2-0.1-0.4-0.2-0.6-0.3c-0.2-0.1-0.4-0.2-0.7-0.4l0,0l3.6,7.2
			c0.2,0.3,0.3,0.6,0.4,0.9c0.1,0.3,0.3,0.6,0.4,0.9c0.2-0.1,0.4-0.3,0.7-0.4c0.3-0.1,0.5-0.2,0.6-0.3l0.5,1l-3.7,1.8l-0.4-0.8
			c0.3-0.2,0.6-0.4,0.7-0.6c0.1-0.2,0.2-0.5,0.1-0.7c0-0.3-0.1-0.5-0.3-0.8l-4.1-8.3c-0.1-0.2-0.2-0.5-0.4-0.7
			c-0.1-0.2-0.2-0.5-0.3-0.7c-0.2,0.1-0.4,0.2-0.6,0.4c-0.2,0.1-0.4,0.2-0.6,0.4l-0.5-1l2.5-1.2l10.7,5.4c0.3,0.2,0.7,0.3,0.9,0.5
			c0.3,0.2,0.6,0.3,0.8,0.4l0,0l-3.7-7.6c-0.1-0.3-0.3-0.5-0.4-0.8c-0.1-0.3-0.2-0.5-0.3-0.7c-0.2,0.1-0.4,0.2-0.7,0.4
			c-0.2,0.1-0.5,0.3-0.6,0.4l-0.5-1l3.7-1.8l0.4,0.8c-0.4,0.2-0.6,0.4-0.7,0.7c-0.1,0.2-0.1,0.5,0,0.8c0.1,0.3,0.3,0.7,0.5,1.2
			l5,10.4L282.3,363.6z"/>
	</g>
	<g>
		<path class="st0" d="M291.3,241.7v-0.9h-10l-14.3,24.7l-14.9-24.8h-9.4v0.9c2.9,1,4.3,3.2,4.3,10.9v24.2c0,4.5-0.4,6.4-2.5,7.1
			v0.9h8.4v-0.9c-0.7-0.2-1.4-0.5-1.9-0.9c-0.9-0.6-1.3-1.6-1.3-2.7v-30.8l13.7,22.5l0,0l0.1,0l0.5,0.8h0.9h1l14.6-25.3v29.3
			c0,4.5-0.4,6.4-2.5,7.1v0.9h11.7v-0.9c-2.1-0.7-2.5-2.6-2.5-7.1v-24.2C287,244.9,288.4,242.7,291.3,241.7z"/>
		<path class="st0" d="M231,272.7c-2.2,6.4-7,10.6-13.9,10.6c-11.9,0-18.9-10.8-19.1-22.5c0.2-12,7.1-18.3,16.8-18.3
			c6.4,0,12.7,3.8,15.3,10.2l0.7-0.2l0-1l-0.2-8.2c-3.2-2.2-9.6-3-14.1-3c-15.1,0-25,10.3-25,22.8c0,0.2,0,0.4,0,0.5
			c0,0.2,0,0.3,0,0.5c0,13.8,9.1,21.5,23.8,21.5c7.5,0,12.2-1.5,15.5-3l1-9.8L231,272.7z"/>
		<path class="st0" d="M172.8,245c-4-3-8.9-4.5-13.7-4.5c-13.1,0-22.1,9.7-22.1,21.9c0,8.9,3.8,15,9.1,18.5c4,3,9,4.4,13.7,4.4
			c10.4,0,22-7,22-22C182,254.6,178.1,248.6,172.8,245z M144.2,259.2c-0.7-10,4.1-16.6,12.5-16.6c3,0,5.8,1,8.3,2.8
			c5.7,4.6,9.4,13.2,10,22.3c0.6,8.2-2.8,15.3-12.3,15.3c-3.1,0-5.9-1-8.4-2.8C148.6,275.8,144.8,267.6,144.2,259.2z"/>
	</g>
	<g>
		<path class="st0" d="M220.8,133C220.8,133,220.8,133,220.8,133C220.9,133,220.8,133,220.8,133z"/>
		<g>
			<path class="st0" d="M226.4,143.4c2.6-0.7,16.5-4.7,18.1-17c1.2-8.6-9.2-12.5-10.1-13c-19.5-7.4-46.6,7.9-53.3,19.5
				c-9.5,16.6,7.9,39.7,41.8,40.6c-23-3-38-18.9-37.8-28.1c0,0-1.2-9,9.6-16c9.9-6.4,28.7-9.7,28.7-9.7c6.3,0.2,10.1,3,10.4,6
				c0.3,3-3.4,5.9-9.1,7.9c0,0-0.1,0-0.1,0c0,0,0.1,0,0,0c-3.3,0.8-6.8,2.1-6.9,5c-0.1,2.9,3.3,5.3,6.2,5.4"/>
			<path class="st0" d="M224.7,133.5C224.7,133.5,224.6,133.5,224.7,133.5C224.6,133.5,224.6,133.5,224.7,133.5z"/>
		</g>
	</g>
	<path class="st0" d="M96.6,190.6c9.2-51,51.7-89,103.1-94.9c10.9-1.2,22.7-0.2,33.2,1.6c8.2,1.4,15.8,5.3,21.4,11.5
		c3.9,4.3,6,8.8,5.9,12.3c0,0,1.2,9-9.6,16c-9.9,6.4-28.7,9.7-28.7,9.7c-6.3-0.2-10.1-3-10.4-6c-0.3-3,3.4-5.9,9.1-7.9
		c0,0,0.1,0,0.1,0c0,0-0.1,0,0,0c3.3-0.8,6.8-2.1,6.9-5c0.1-2.9-3.3-5.3-6.2-5.4l-2.3,0.4c-2.6,0.7-16.5,4.7-18.1,17
		c-1.2,8.6,9.2,12.5,10.1,13c19.5,7.4,46.6-7.9,53.3-19.5c9.5-16.4-6.8-39.2-41.1-40.5c-3.1-0.3-6.3-0.4-9.5-0.4
		c-66.3,0-120,53.7-120,120"/>
	<g>
		<path class="st0" d="M113.1,273.9c-10.8-17.8-17.6-38.6-17.6-60.9c0-65,53.3-117.1,118.3-117.1c7.8,0,15,0.7,22.4,2.2l0.9-3.1
			c-7.5-1.5-15.3-2.3-23.2-2.3c-66.5,0-120.4,53.9-120.4,120.4c0,22.2,7.4,43,18,60.9H113.1z"/>
		<path class="st0" d="M331.8,213c0,22.4-5.6,43.1-16.4,60.9h2.2c10.5-17.9,16.5-38.7,16.5-60.9c0-42.4-22.3-80.1-55.4-101.5
			l1.6,5.6C312.4,138.1,331.8,171.7,331.8,213z"/>
	</g>
	<path class="st0" d="M284.2,173.5c-9.5,0-17.1-8.8-17.1-19.7c0,10.9-7.7,19.7-17.1,19.7c9.5,0,17.1,8.8,17.1,19.7
		C267,182.4,274.7,173.5,284.2,173.5z"/>
	<g>
		<path class="st1" d="M67.2,250.8l-0.9,0.2c-0.1-0.4-0.3-0.7-0.5-0.9c-0.2-0.2-0.5-0.2-0.8-0.2c-0.3,0-0.8,0.1-1.3,0.2l-8.4,1.8
			c-0.3,0.1-0.6,0.1-0.9,0.2s-0.5,0.1-0.7,0.1c0.1,0.2,0.1,0.5,0.2,0.7c0.1,0.3,0.1,0.5,0.2,0.7l-1.1,0.2c-0.2-0.8-0.4-1.6-0.6-2.5
			c-0.2-0.8-0.4-1.7-0.5-2.5c-0.3-1.3-0.4-2.3-0.2-3.2c0.1-0.9,0.4-1.6,0.9-2.1c0.5-0.5,1.1-0.9,2-1.1c0.5-0.1,1.1-0.1,1.7,0
			c0.6,0.1,1.1,0.4,1.7,0.8c0.5,0.4,1,1.1,1.4,2c0.1-0.3,0.3-0.6,0.5-0.9c0.2-0.3,0.5-0.6,0.8-0.9l1.6-1.6c0.3-0.3,0.6-0.7,0.9-0.9
			c0.2-0.3,0.4-0.6,0.5-0.9c0.1-0.3,0.1-0.6,0-1l0.9-0.2l0.6,2.8c-0.2,0.4-0.5,0.8-0.8,1.1c-0.3,0.3-0.6,0.7-1,1.1l-2,1.9
			c-0.2,0.2-0.5,0.5-0.7,0.7c-0.3,0.3-0.5,0.5-0.6,0.8c0,0.2,0.1,0.4,0.1,0.6c0,0.2,0.1,0.4,0.1,0.6l3.3-0.7c0.4-0.1,0.7-0.1,1-0.2
			s0.5-0.1,0.7-0.1c0-0.2-0.1-0.3-0.1-0.5c0-0.2-0.1-0.4-0.1-0.5s-0.1-0.3-0.1-0.5l1.1-0.2L67.2,250.8z M59.1,247.6
			c-0.2-0.7-0.4-1.3-0.8-1.8c-0.3-0.5-0.8-0.8-1.3-1c-0.5-0.2-1.2-0.2-1.9,0c-0.6,0.1-1,0.3-1.3,0.5c-0.3,0.2-0.6,0.5-0.8,0.9
			c-0.2,0.3-0.3,0.7-0.3,1.2c0,0.4,0,0.9,0.1,1.4c0.1,0.4,0.2,0.7,0.4,0.9c0.2,0.2,0.5,0.2,0.8,0.2c0.3,0,0.7-0.1,1.2-0.2l4-0.9
			c0-0.2-0.1-0.4-0.1-0.6C59.2,248.1,59.2,247.9,59.1,247.6z"/>
		<path class="st1" d="M63.6,228c0.1,1.3,0,2.4-0.3,3.4c-0.3,1-0.9,1.8-1.5,2.4c-0.7,0.6-1.4,1.2-2.3,1.5c-0.9,0.4-1.7,0.6-2.6,0.7
			c-0.9,0.1-1.8,0-2.7-0.2s-1.8-0.6-2.6-1.1c-0.8-0.5-1.5-1.2-2-2.1c-0.5-0.9-0.9-1.9-1-3.1c-0.1-1.3,0-2.4,0.4-3.3
			c0.4-1,0.9-1.8,1.6-2.4c0.7-0.7,1.5-1.2,2.3-1.6s1.7-0.6,2.6-0.7c0.9-0.1,1.7,0,2.6,0.2c0.9,0.2,1.8,0.6,2.6,1.1
			c0.8,0.5,1.5,1.2,2,2.1C63.1,225.7,63.5,226.7,63.6,228z M62.5,228c-0.1-0.8-0.3-1.5-0.7-2c-0.4-0.5-0.9-1-1.6-1.3
			c-0.6-0.3-1.3-0.5-2.1-0.6c-0.7-0.1-1.5-0.1-2.2-0.1c-0.9,0.1-1.7,0.3-2.5,0.6c-0.8,0.3-1.5,0.7-2.1,1.2c-0.6,0.5-1.1,1-1.4,1.7
			c-0.3,0.7-0.4,1.4-0.4,2.2c0.1,0.8,0.3,1.5,0.8,2c0.4,0.6,1,1,1.6,1.3c0.6,0.3,1.3,0.5,2.1,0.6c0.7,0.1,1.5,0.1,2.2,0.1
			c0.7-0.1,1.5-0.2,2.2-0.5c0.8-0.3,1.5-0.6,2.1-1.1c0.6-0.5,1.2-1,1.5-1.7C62.5,229.6,62.6,228.8,62.5,228z"/>
		<path class="st1" d="M62.5,216l-0.9,0c0-0.5-0.1-0.8-0.3-1c-0.2-0.2-0.4-0.3-0.7-0.4c-0.3-0.1-0.7-0.1-1.3-0.1l-8.6-0.1
			c-0.3,0-0.6,0-0.9,0c-0.3,0-0.5,0-0.7-0.1c0,0.2,0,0.5,0,0.8c0,0.3,0,0.5,0,0.7l-1.1,0l0.1-5.1l0.9,0c0,0.4,0.1,0.8,0.3,1
			c0.2,0.2,0.4,0.3,0.7,0.4c0.3,0.1,0.7,0.1,1.3,0.1l8.6,0.1c0.4,0,0.7,0,1,0c0.3,0,0.5,0,0.7,0.1l0-3.5c0-0.9-0.3-1.5-0.8-2
			c-0.5-0.5-1.4-0.7-2.6-0.7l0-0.9l4.5,0.2L62.5,216z"/>
		<path class="st1" d="M63.1,200.6l-0.9-0.1c0-0.5,0-0.8-0.2-1c-0.1-0.2-0.4-0.4-0.7-0.5c-0.3-0.1-0.7-0.2-1.2-0.2l-8.6-0.9
			c-0.3,0-0.6-0.1-0.9-0.1c-0.3,0-0.5-0.1-0.7-0.1c0,0.2,0,0.5,0,0.8c0,0.3,0,0.5,0,0.7l-1.1-0.1l1-9.8l3.7,0.3l-0.1,0.9
			c-0.8-0.1-1.4,0-1.8,0.2c-0.4,0.2-0.7,0.5-0.9,0.9c-0.2,0.4-0.3,0.8-0.3,1.3l-0.1,1.2c0,0.4,0,0.8,0.2,1c0.2,0.2,0.4,0.4,0.7,0.5
			c0.3,0.1,0.7,0.2,1.2,0.2l3.5,0.4l0.3-3.1l-1.8-0.1l0.1-1.1l4.6,0.5l-0.1,0.9c-0.6-0.1-1,0-1.3,0.1c-0.3,0.1-0.5,0.4-0.6,0.7
			c-0.1,0.3-0.2,0.8-0.2,1.3l-0.1,0.9l3.8,0.4c0.4,0,0.7,0.1,1,0.1s0.5,0.1,0.7,0.1c0-0.2,0-0.4,0-0.7c0-0.2,0-0.5,0-0.7
			c0-0.2,0-0.4,0-0.6l1.1,0.1L63.1,200.6z"/>
		<path class="st1" d="M60.3,163.9c-1.2-0.2-2.3,0-3.1,0.4c-0.8,0.5-1.4,1.3-1.7,2.4c-0.2,0.7-0.2,1.4-0.1,2
			c0.1,0.7,0.4,1.3,0.9,1.9c0.4,0.6,1,1.1,1.7,1.5c0.7,0.4,1.5,0.8,2.4,1c1.2,0.3,2.3,0.4,3.4,0.3c1.1-0.2,1.9-0.5,2.7-1.1
			c0.7-0.6,1.2-1.4,1.5-2.3c0.2-0.8,0.3-1.7,0.1-2.7c-0.2-0.9-0.5-1.8-1.1-2.5l0.7-0.5c0.7,0.8,1.1,1.6,1.3,2.4
			c0.2,0.8,0.3,1.6,0.3,2.3c0,0.7-0.1,1.3-0.3,1.9c-0.3,1-0.7,1.9-1.3,2.6c-0.6,0.7-1.3,1.3-2.1,1.7c-0.8,0.4-1.7,0.7-2.6,0.8
			c-0.9,0.1-1.9,0-2.9-0.3c-0.9-0.3-1.8-0.7-2.6-1.2c-0.8-0.5-1.5-1.2-2-2c-0.6-0.8-0.9-1.7-1.1-2.6c-0.2-1-0.1-2.1,0.2-3.2
			c0.2-0.7,0.5-1.3,0.8-1.9c0.4-0.6,0.8-1.1,1.4-1.6l-1-0.2l0.4-1.2l4.6,1.3L60.3,163.9z"/>
		<path class="st1" d="M71.7,160.7l-0.8-0.4c0.2-0.4,0.2-0.8,0.1-1c-0.1-0.2-0.3-0.5-0.5-0.6c-0.3-0.2-0.7-0.4-1.1-0.6l-7.9-3.3
			c-0.3-0.1-0.5-0.2-0.8-0.4c-0.3-0.1-0.5-0.2-0.7-0.3c-0.1,0.2-0.2,0.5-0.3,0.7c-0.1,0.3-0.2,0.5-0.3,0.7l-1-0.4l2-4.7l0.8,0.4
			c-0.2,0.4-0.2,0.7-0.1,1c0.1,0.3,0.3,0.5,0.5,0.7c0.3,0.2,0.7,0.4,1.1,0.6l3.1,1.3l2.7-6.3l-3.6-1.5c-0.3-0.1-0.5-0.2-0.8-0.4
			c-0.3-0.1-0.5-0.2-0.7-0.3c-0.1,0.2-0.2,0.5-0.3,0.7c-0.1,0.3-0.2,0.5-0.3,0.7l-1-0.4l2-4.7l0.8,0.4c-0.2,0.4-0.2,0.7-0.1,1
			c0.1,0.3,0.3,0.5,0.5,0.7c0.3,0.2,0.7,0.4,1.1,0.6l7.8,3.3c0.3,0.1,0.6,0.3,0.9,0.4c0.3,0.1,0.5,0.2,0.6,0.3
			c0.1-0.2,0.2-0.5,0.3-0.7c0.1-0.3,0.2-0.5,0.3-0.7l1,0.4l-2,4.7l-0.8-0.4c0.2-0.4,0.2-0.8,0.1-1c-0.1-0.2-0.3-0.5-0.5-0.6
			c-0.3-0.2-0.7-0.4-1.1-0.6l-3.3-1.4l-2.6,6.3l3.7,1.6c0.3,0.1,0.6,0.3,0.9,0.4c0.3,0.1,0.5,0.2,0.6,0.3c0.1-0.2,0.2-0.5,0.3-0.7
			c0.1-0.3,0.2-0.5,0.3-0.7l1,0.4L71.7,160.7z"/>
		<path class="st1" d="M70.2,132.1c-0.2,0.4-0.3,0.7-0.2,1c0.1,0.3,0.2,0.5,0.5,0.7c0.3,0.2,0.6,0.4,1.1,0.7l7.5,4.1
			c0.3,0.2,0.6,0.3,0.9,0.5c0.3,0.1,0.5,0.3,0.6,0.4c0.1-0.2,0.2-0.5,0.3-0.7c0.1-0.3,0.2-0.5,0.3-0.7l1,0.5l-2.4,4.5l-0.8-0.4
			c0.2-0.4,0.3-0.7,0.2-1c-0.1-0.3-0.2-0.5-0.5-0.7s-0.6-0.4-1.1-0.7l-7.6-4.1c-0.3-0.1-0.5-0.3-0.8-0.4c-0.2-0.1-0.4-0.3-0.6-0.4
			c-0.1,0.2-0.2,0.4-0.3,0.7c-0.1,0.2-0.2,0.5-0.3,0.7l-1-0.5l2.4-4.5L70.2,132.1z"/>
		<path class="st1" d="M91.2,124.9l-12.8,0.6c-0.2,0-0.5,0-0.7,0c-0.2,0-0.5,0-0.7,0l0,0l6.7,4.5c0.3,0.2,0.6,0.4,0.8,0.6
			c0.3,0.2,0.5,0.4,0.8,0.6c0.1-0.2,0.2-0.4,0.4-0.7c0.2-0.2,0.3-0.4,0.4-0.6l0.9,0.6l-2.3,3.4l-0.8-0.5c0.2-0.3,0.3-0.6,0.3-0.9
			c0-0.3-0.1-0.5-0.3-0.7c-0.2-0.2-0.4-0.4-0.7-0.6l-7.7-5.2c-0.2-0.2-0.5-0.3-0.7-0.5c-0.2-0.2-0.4-0.3-0.6-0.4
			c-0.1,0.2-0.2,0.4-0.4,0.6c-0.1,0.2-0.3,0.4-0.4,0.6l-0.9-0.6l1.5-2.3l12-0.7c0.4,0,0.7,0,1.1,0c0.3,0,0.6,0,0.9,0l0,0l-7-4.8
			c-0.3-0.2-0.5-0.3-0.7-0.5c-0.2-0.2-0.4-0.3-0.6-0.4c-0.1,0.2-0.3,0.4-0.4,0.7c-0.1,0.2-0.3,0.4-0.4,0.6l-0.9-0.6l2.3-3.4l0.8,0.5
			c-0.2,0.4-0.3,0.7-0.3,1c0,0.3,0.2,0.5,0.4,0.7c0.2,0.2,0.6,0.5,1,0.8l9.6,6.5L91.2,124.9z"/>
		<path class="st1" d="M88.5,106c-0.3,0.3-0.4,0.7-0.4,0.9c0,0.3,0.1,0.5,0.3,0.8c0.2,0.3,0.5,0.5,0.9,0.9l6.5,5.4
			c0.3,0.2,0.5,0.5,0.8,0.6c0.2,0.2,0.4,0.4,0.5,0.5c0.1-0.2,0.3-0.4,0.5-0.6c0.2-0.2,0.3-0.4,0.4-0.6l0.9,0.7l-3.2,3.9L95,118
			c0.3-0.4,0.4-0.7,0.4-0.9c0-0.3-0.1-0.5-0.3-0.8c-0.2-0.3-0.5-0.5-0.9-0.9l-6.6-5.5c-0.2-0.2-0.5-0.4-0.7-0.6
			c-0.2-0.2-0.4-0.4-0.5-0.5c-0.1,0.2-0.3,0.4-0.5,0.6c-0.2,0.2-0.3,0.4-0.4,0.6l-0.9-0.7l3.2-3.9L88.5,106z"/>
		<path class="st1" d="M110.6,89.4c-0.9-0.8-1.9-1.3-2.9-1.3c-1,0-1.9,0.3-2.7,1.1c-0.5,0.5-0.9,1-1.2,1.7c-0.2,0.6-0.3,1.3-0.3,2
			c0.1,0.7,0.2,1.5,0.6,2.2c0.3,0.7,0.8,1.5,1.4,2.1c0.8,0.9,1.7,1.6,2.7,2.1c1,0.4,1.9,0.6,2.9,0.5c0.9-0.1,1.8-0.5,2.5-1.2
			c0.7-0.6,1.2-1.3,1.5-2.2c0.4-0.9,0.5-1.8,0.4-2.8l0.9,0c0.1,1.1,0,2-0.2,2.8c-0.2,0.8-0.5,1.5-1,2.1c-0.4,0.6-0.8,1.1-1.3,1.4
			c-0.8,0.7-1.6,1.2-2.5,1.5c-0.9,0.3-1.8,0.4-2.7,0.3c-0.9-0.1-1.8-0.3-2.6-0.8c-0.8-0.4-1.6-1-2.3-1.8c-0.6-0.7-1.2-1.5-1.5-2.4
			c-0.4-0.9-0.6-1.8-0.7-2.8c-0.1-1,0.1-1.9,0.5-2.8c0.4-0.9,1-1.8,1.9-2.6c0.5-0.5,1.1-0.8,1.7-1.1c0.6-0.3,1.3-0.5,2-0.6l-0.8-0.7
			l1-0.9l3.2,3.6L110.6,89.4z"/>
		<path class="st1" d="M124.7,84.5c-0.3-0.5-0.7-0.8-1-0.9c-0.3-0.1-0.6-0.1-0.9,0.1c-0.3,0.1-0.7,0.4-1.1,0.7l-1,0.7l2.5,3.5
			c0.2,0.3,0.4,0.6,0.6,0.8c0.2,0.2,0.3,0.4,0.4,0.6l2.9-2.1c0.4-0.3,0.8-0.7,1-1.1c0.2-0.4,0.3-0.9,0.3-1.4
			c-0.1-0.5-0.3-1.1-0.8-1.7l0.7-0.5l2.3,3.5l-8.8,6.2l-0.5-0.7c0.4-0.3,0.6-0.6,0.6-0.8c0.1-0.3,0-0.5-0.1-0.8
			c-0.1-0.3-0.4-0.7-0.7-1.1l-5-7c-0.2-0.2-0.3-0.5-0.5-0.7c-0.2-0.2-0.3-0.4-0.4-0.6c-0.2,0.1-0.4,0.3-0.6,0.5
			c-0.2,0.2-0.4,0.3-0.6,0.5l-0.7-0.9l8.2-5.8l2.3,3l-0.7,0.5c-0.5-0.6-0.9-1.1-1.4-1.2c-0.4-0.2-0.9-0.2-1.3-0.1
			c-0.4,0.1-0.8,0.3-1.2,0.6l-1.2,0.9c-0.3,0.2-0.6,0.5-0.7,0.7c-0.1,0.2-0.1,0.5,0.1,0.8c0.1,0.3,0.4,0.7,0.7,1.1l1.9,2.6l2.8-2
			l-1.1-1.4l0.9-0.7l2.6,3.7L124.7,84.5z"/>
		<path class="st1" d="M135.1,83.9l-0.4-0.8c0.4-0.2,0.6-0.5,0.7-0.7c0.1-0.2,0.1-0.5,0-0.8c-0.1-0.3-0.3-0.7-0.5-1.1l-4.2-7.5
			c-0.1-0.3-0.3-0.5-0.4-0.8c-0.1-0.3-0.2-0.5-0.3-0.7c-0.2,0.1-0.4,0.3-0.6,0.4c-0.2,0.1-0.4,0.3-0.6,0.4l-0.6-1
			c0.7-0.4,1.5-0.8,2.2-1.3c0.7-0.4,1.5-0.8,2.3-1.3c1.1-0.6,2.1-1,3-1.2c0.9-0.2,1.6-0.1,2.3,0.2c0.6,0.3,1.2,0.8,1.6,1.6
			c0.3,0.5,0.5,1,0.5,1.6c0.1,0.6,0,1.2-0.3,1.8c-0.3,0.6-0.8,1.3-1.5,2c0.3,0,0.6,0.1,1,0.2c0.3,0.1,0.7,0.3,1.1,0.5l2,1.1
			c0.4,0.2,0.8,0.4,1.1,0.6c0.3,0.1,0.7,0.2,1,0.2c0.3,0,0.6-0.1,1-0.3l0.4,0.8l-2.5,1.4c-0.5-0.1-0.9-0.2-1.3-0.4
			c-0.4-0.2-0.8-0.4-1.3-0.6l-2.4-1.3c-0.3-0.2-0.6-0.3-0.9-0.5c-0.3-0.2-0.6-0.3-1-0.4c-0.2,0.1-0.4,0.2-0.6,0.3
			c-0.2,0.1-0.4,0.2-0.6,0.3l1.7,3c0.2,0.3,0.3,0.6,0.5,0.9c0.1,0.3,0.2,0.5,0.3,0.6c0.1-0.1,0.3-0.2,0.4-0.3
			c0.2-0.1,0.3-0.2,0.5-0.3c0.2-0.1,0.3-0.2,0.4-0.3l0.6,1L135.1,83.9z M135.8,75.3c0.7-0.4,1.2-0.8,1.5-1.3c0.4-0.5,0.5-1,0.6-1.5
			c0-0.6-0.2-1.2-0.5-1.8c-0.3-0.5-0.6-0.9-0.9-1.1c-0.3-0.3-0.7-0.4-1.1-0.5c-0.4-0.1-0.8,0-1.2,0.1c-0.4,0.1-0.8,0.3-1.3,0.5
			c-0.4,0.2-0.6,0.4-0.7,0.7c-0.1,0.2-0.1,0.5,0,0.8c0.1,0.3,0.3,0.7,0.5,1.1l2,3.5c0.2-0.1,0.4-0.2,0.5-0.2
			C135.5,75.5,135.6,75.4,135.8,75.3z"/>
		<path class="st1" d="M150,75.9l-0.4-0.8c0.4-0.2,0.7-0.4,0.8-0.6c0.1-0.2,0.1-0.5,0.1-0.8s-0.2-0.7-0.4-1.2l-3.3-7.9
			c-0.1-0.3-0.2-0.6-0.3-0.8c-0.1-0.3-0.2-0.5-0.2-0.7c-0.2,0.1-0.4,0.2-0.7,0.3c-0.2,0.1-0.5,0.2-0.7,0.3l-0.4-1
			c0.8-0.3,1.5-0.7,2.3-1c0.8-0.3,1.6-0.7,2.4-1c1.2-0.5,2.2-0.8,3.1-0.8c0.9-0.1,1.6,0.1,2.3,0.5c0.6,0.4,1.1,1,1.4,1.8
			c0.2,0.5,0.3,1,0.3,1.6c0,0.6-0.2,1.2-0.5,1.8c-0.3,0.6-0.9,1.2-1.7,1.8c0.3,0,0.6,0.2,0.9,0.3c0.3,0.2,0.7,0.4,1,0.6l1.9,1.3
			c0.4,0.3,0.8,0.5,1.1,0.7c0.3,0.2,0.6,0.3,0.9,0.3c0.3,0,0.7,0,1-0.2l0.4,0.8l-2.6,1.1c-0.4-0.1-0.9-0.3-1.2-0.5
			c-0.4-0.2-0.8-0.5-1.2-0.8l-2.2-1.6c-0.3-0.2-0.6-0.4-0.9-0.6c-0.3-0.2-0.6-0.4-0.9-0.5c-0.2,0.1-0.4,0.2-0.6,0.3
			c-0.2,0.1-0.4,0.2-0.6,0.3l1.3,3.1c0.1,0.3,0.3,0.7,0.4,0.9c0.1,0.3,0.2,0.5,0.2,0.7c0.1-0.1,0.3-0.2,0.5-0.2
			c0.2-0.1,0.3-0.2,0.5-0.2c0.2-0.1,0.3-0.2,0.4-0.2l0.4,1L150,75.9z M151.7,67.4c0.7-0.3,1.2-0.7,1.7-1.1c0.4-0.4,0.6-0.9,0.7-1.5
			c0.1-0.5,0-1.2-0.3-1.9c-0.2-0.5-0.5-0.9-0.8-1.2c-0.3-0.3-0.6-0.5-1-0.6c-0.4-0.1-0.8-0.1-1.2-0.1c-0.4,0.1-0.9,0.2-1.3,0.4
			c-0.4,0.2-0.7,0.4-0.8,0.6c-0.1,0.2-0.1,0.5-0.1,0.8c0.1,0.3,0.2,0.7,0.4,1.2l1.6,3.7c0.2-0.1,0.4-0.1,0.6-0.2
			C151.3,67.6,151.5,67.5,151.7,67.4z"/>
		<path class="st1" d="M171.9,68.2c-1.3,0.4-2.4,0.5-3.4,0.3c-1-0.2-1.9-0.5-2.7-1.1c-0.8-0.5-1.4-1.2-1.9-2
			c-0.5-0.8-0.9-1.6-1.1-2.5c-0.2-0.8-0.3-1.7-0.3-2.7c0-0.9,0.2-1.8,0.6-2.7c0.4-0.9,0.9-1.7,1.7-2.4c0.7-0.7,1.7-1.2,2.9-1.5
			c1.2-0.4,2.3-0.4,3.3-0.3c1,0.2,1.9,0.6,2.7,1.1c0.8,0.6,1.4,1.2,2,2c0.5,0.8,0.9,1.6,1.2,2.4c0.2,0.8,0.3,1.7,0.3,2.6
			c0,0.9-0.2,1.8-0.6,2.7c-0.4,0.9-0.9,1.7-1.7,2.4C174,67.3,173.1,67.8,171.9,68.2z M171.7,67.1c0.8-0.2,1.4-0.6,1.8-1.1
			c0.5-0.5,0.8-1.1,1-1.8c0.2-0.7,0.3-1.4,0.3-2.1c0-0.7-0.1-1.5-0.3-2.1c-0.2-0.8-0.6-1.6-1-2.4c-0.4-0.7-0.9-1.3-1.5-1.9
			c-0.6-0.5-1.2-0.9-1.9-1.1c-0.7-0.2-1.4-0.2-2.2,0.1c-0.8,0.2-1.4,0.6-1.8,1.1c-0.5,0.5-0.8,1.1-1,1.8c-0.2,0.7-0.3,1.4-0.3,2.1
			c0,0.7,0.1,1.5,0.3,2.2c0.2,0.7,0.5,1.4,0.9,2.1c0.4,0.7,0.9,1.3,1.5,1.9c0.6,0.6,1.2,0.9,1.9,1.2
			C170.1,67.4,170.8,67.4,171.7,67.1z"/>
		<path class="st1" d="M200.1,62.8c-0.7-1.2-1.3-2.5-2-3.7c-0.7-1.2-1.3-2.5-2-3.8c-0.2-0.4-0.4-0.8-0.6-1.2s-0.4-0.9-0.7-1.4
			c-0.2-0.5-0.4-1-0.6-1.5c0,0.4,0.1,0.7,0.1,1c0,0.3,0.1,0.6,0.1,0.9c0,0.4,0.1,0.9,0.1,1.5c0,0.6,0.1,1.2,0.1,1.8
			c0,0.6,0.1,1.3,0.1,1.9c0,0.6,0.1,1.2,0.1,1.8c0,0.3,0,0.7,0.1,1c0,0.3,0,0.6,0,0.8c0.2,0,0.5-0.1,0.8-0.1c0.3,0,0.5-0.1,0.7-0.1
			l0.1,1.1l-4.2,0.4l-0.1-0.9c0.4,0,0.7-0.1,0.9-0.3c0.2-0.2,0.3-0.4,0.4-0.7c0.1-0.3,0.1-0.6,0-1l-0.5-8.9c0-0.3,0-0.6,0-0.9
			c0-0.3,0-0.6,0-0.8c-0.2,0-0.5,0.1-0.8,0.1c-0.3,0-0.5,0.1-0.7,0.1l-0.1-1.1l3.6-0.3l4.1,7.8c0.2,0.4,0.4,0.7,0.6,1.1
			c0.2,0.4,0.4,0.8,0.6,1.2c0.2,0.4,0.4,0.8,0.6,1.1l0,0c0.1-0.4,0.2-0.9,0.4-1.4c0.2-0.5,0.3-1,0.4-1.4c0.5-1.5,0.9-3.1,1.4-4.6
			c0.5-1.5,1-3.1,1.4-4.7l3.6-0.3l0.1,0.9c-0.3,0-0.6,0.1-0.8,0.2c-0.2,0.1-0.4,0.4-0.4,0.7c-0.1,0.3-0.1,0.7,0,1.3l1.2,8.8
			c0.1,0.3,0.1,0.5,0.1,0.8c0,0.3,0,0.5,0,0.7c0.2,0,0.5-0.1,0.8-0.1c0.3,0,0.5-0.1,0.7-0.1l0.1,1.1l-5,0.4l-0.1-0.9
			c0.4,0,0.7-0.2,0.9-0.3c0.2-0.2,0.3-0.4,0.4-0.7c0-0.3,0-0.8,0-1.3l-0.8-6c0-0.2-0.1-0.4-0.1-0.7c0-0.3-0.1-0.6-0.1-0.9
			c0-0.3-0.1-0.6-0.1-0.9c0,0.1-0.1,0.2-0.1,0.3c0,0.1-0.1,0.2-0.1,0.3l-3.5,11.6L200.1,62.8z"/>
		<path class="st1" d="M220.1,48.5c-0.4,0-0.7,0-0.9,0.2c-0.2,0.1-0.4,0.3-0.4,0.6c-0.1,0.3-0.1,0.5-0.2,0.9l-0.3,5.3
			c0,0.8,0,1.6,0.1,2.2c0.1,0.7,0.3,1.3,0.5,1.8c0.3,0.5,0.7,0.9,1.2,1.2c0.5,0.3,1.1,0.5,1.9,0.5c0.9,0,1.7-0.1,2.3-0.5
			c0.6-0.4,1.1-1,1.4-1.7c0.3-0.8,0.5-1.7,0.6-2.7l0.3-5.7c0-0.3,0-0.6,0.1-0.9c0-0.3,0.1-0.5,0.1-0.7c-0.2,0-0.5,0-0.8,0
			c-0.3,0-0.5,0-0.7,0l0.1-1.1l4.2,0.2l0,0.9c-0.5,0-0.8,0.1-1,0.2c-0.2,0.2-0.4,0.4-0.4,0.7c-0.1,0.3-0.1,0.7-0.2,1.3l-0.3,4.9
			c-0.1,1-0.2,1.9-0.5,2.7c-0.3,0.8-0.7,1.5-1.1,2.1c-0.5,0.6-1.1,1-1.8,1.3c-0.7,0.3-1.6,0.4-2.5,0.3c-1.1-0.1-2-0.3-2.8-0.6
			c-0.7-0.3-1.3-0.8-1.7-1.4c-0.4-0.6-0.7-1.4-0.8-2.3c-0.1-0.9-0.2-1.9-0.1-3l0.2-4.5c0-0.4,0.1-0.8,0.1-1.2c0-0.4,0.1-0.8,0.1-1
			c-0.2,0-0.5,0-0.8,0s-0.5,0-0.7,0l0.1-1.1l5.1,0.3L220.1,48.5z"/>
		<path class="st1" d="M233.6,63.2l0.2-0.9c0.5,0,0.8,0,1-0.1c0.2-0.1,0.4-0.4,0.5-0.7c0.1-0.3,0.2-0.7,0.3-1.2l1.4-8.5
			c0-0.3,0.1-0.6,0.2-0.9c0.1-0.3,0.1-0.5,0.2-0.7c-0.2,0-0.5-0.1-0.8-0.1c-0.3,0-0.5-0.1-0.7-0.1l0.2-1.1c0.8,0.1,1.7,0.3,2.5,0.4
			c0.8,0.1,1.7,0.3,2.5,0.4c1.3,0.2,2.3,0.5,3.1,1c0.8,0.4,1.3,1,1.6,1.6c0.3,0.6,0.4,1.4,0.2,2.3c-0.1,0.5-0.3,1.1-0.6,1.6
			c-0.3,0.5-0.8,0.9-1.4,1.2c-0.6,0.3-1.4,0.5-2.4,0.6c0.2,0.2,0.5,0.5,0.6,0.8c0.2,0.3,0.3,0.7,0.5,1.1l0.9,2.1
			c0.2,0.5,0.4,0.8,0.5,1.2c0.2,0.3,0.4,0.6,0.6,0.8c0.2,0.2,0.6,0.3,0.9,0.4l-0.2,0.9l-2.8-0.5c-0.3-0.4-0.6-0.7-0.7-1.1
			c-0.2-0.4-0.4-0.8-0.6-1.3l-1-2.5c-0.1-0.3-0.3-0.6-0.4-1c-0.1-0.3-0.3-0.6-0.5-0.9c-0.2,0-0.4-0.1-0.6-0.1
			c-0.2,0-0.4-0.1-0.6-0.1l-0.6,3.4c-0.1,0.4-0.1,0.7-0.2,1c-0.1,0.3-0.1,0.5-0.2,0.7c0.2,0,0.3,0,0.5,0.1c0.2,0,0.4,0,0.6,0.1
			c0.2,0,0.3,0,0.5,0.1l-0.2,1.1L233.6,63.2z M239.6,56.9c0.7,0.1,1.4,0.1,2,0c0.6-0.1,1-0.4,1.4-0.8c0.4-0.4,0.6-1,0.7-1.8
			c0.1-0.6,0.1-1,0-1.4c-0.1-0.4-0.3-0.8-0.5-1c-0.3-0.3-0.6-0.5-1-0.7c-0.4-0.2-0.8-0.3-1.3-0.4c-0.4-0.1-0.8,0-1,0.1
			c-0.2,0.1-0.4,0.3-0.5,0.6c-0.1,0.3-0.2,0.7-0.3,1.2l-0.7,4c0.2,0,0.4,0.1,0.6,0.2C239.1,56.8,239.3,56.9,239.6,56.9z"/>
		<path class="st1" d="M250.5,65.5c0.4,0.1,0.8,0.1,1,0c0.2-0.1,0.4-0.3,0.6-0.6c0.1-0.3,0.3-0.7,0.4-1.2l2.4-8.3
			c0.1-0.3,0.2-0.6,0.3-0.8c0.1-0.3,0.2-0.5,0.2-0.7c-0.2-0.1-0.5-0.1-0.7-0.2c-0.3-0.1-0.5-0.1-0.7-0.2l0.3-1.1
			c0.8,0.2,1.6,0.4,2.4,0.6c0.8,0.2,1.6,0.5,2.5,0.7c1.2,0.4,2.3,0.8,3,1.3c0.8,0.5,1.3,1.2,1.6,1.9c0.3,0.7,0.3,1.6,0.1,2.5
			c-0.1,0.5-0.4,1-0.7,1.5c-0.4,0.5-0.8,0.9-1.4,1.2c-0.6,0.3-1.4,0.5-2.3,0.6c-0.9,0.1-2-0.1-3.2-0.4c-0.1,0-0.3-0.1-0.5-0.1
			c-0.2,0-0.3-0.1-0.5-0.2l-0.7,2.5c-0.1,0.4-0.2,0.7-0.3,1c-0.1,0.3-0.2,0.5-0.2,0.7c0.2,0,0.4,0.1,0.6,0.1c0.2,0,0.4,0.1,0.6,0.1
			s0.4,0.1,0.6,0.1l-0.3,1.1l-5.2-1.5L250.5,65.5z M255.5,61.1c0.2,0.1,0.4,0.2,0.6,0.2c0.2,0.1,0.4,0.1,0.6,0.2
			c0.7,0.2,1.4,0.3,2.1,0.1c0.6-0.1,1.2-0.4,1.7-0.8c0.5-0.4,0.8-1,1-1.8c0.2-0.6,0.2-1.2,0.2-1.7c-0.1-0.5-0.2-0.9-0.5-1.2
			c-0.3-0.3-0.6-0.6-1-0.9c-0.4-0.2-0.9-0.4-1.3-0.6c-0.4-0.1-0.7-0.1-0.9,0c-0.2,0.1-0.4,0.3-0.6,0.6c-0.1,0.3-0.3,0.7-0.4,1.1
			L255.5,61.1z"/>
		<path class="st1" d="M265,70.7l0.3-0.8c0.4,0.1,0.8,0.2,1,0.1c0.2-0.1,0.5-0.3,0.6-0.5c0.2-0.3,0.4-0.7,0.6-1.1l3.3-7.9
			c0.1-0.3,0.2-0.5,0.4-0.8c0.1-0.3,0.2-0.5,0.3-0.7c-0.2-0.1-0.5-0.2-0.7-0.3c-0.3-0.1-0.5-0.2-0.7-0.2l0.4-1.1l4.7,1.9l-0.3,0.8
			c-0.4-0.2-0.7-0.2-1-0.1c-0.3,0.1-0.5,0.3-0.6,0.5c-0.2,0.3-0.4,0.7-0.6,1.1l-1.3,3.1l6.3,2.6l1.5-3.6c0.1-0.3,0.2-0.5,0.4-0.8
			c0.1-0.3,0.2-0.5,0.3-0.7c-0.2-0.1-0.5-0.2-0.7-0.3c-0.3-0.1-0.5-0.2-0.7-0.2l0.4-1.1l4.7,1.9l-0.3,0.8c-0.4-0.2-0.7-0.2-1-0.1
			c-0.3,0.1-0.5,0.3-0.6,0.5c-0.2,0.3-0.4,0.7-0.6,1.1l-3.2,7.9c-0.1,0.3-0.3,0.7-0.4,0.9c-0.1,0.3-0.2,0.5-0.3,0.6
			c0.2,0.1,0.5,0.1,0.7,0.2c0.3,0.1,0.5,0.2,0.7,0.3l-0.4,1l-4.7-1.9l0.3-0.8c0.4,0.1,0.8,0.2,1,0.1c0.2-0.1,0.5-0.3,0.6-0.5
			c0.2-0.3,0.4-0.7,0.6-1.1l1.4-3.3l-6.3-2.6l-1.5,3.7c-0.1,0.3-0.3,0.7-0.4,0.9c-0.1,0.3-0.2,0.5-0.3,0.6c0.2,0.1,0.5,0.1,0.7,0.2
			c0.3,0.1,0.5,0.2,0.7,0.3l-0.4,1.1L265,70.7z"/>
		<path class="st1" d="M286.1,80.3l0.4-0.8c0.4,0.2,0.7,0.3,1,0.2c0.3,0,0.5-0.2,0.7-0.5c0.2-0.3,0.4-0.6,0.7-1l1.1-1.9l-0.4-6.8
			c0-0.6,0-1,0-1.5c0-0.4,0.1-0.7,0.2-1c-0.2-0.1-0.4-0.2-0.6-0.3c-0.2-0.1-0.3-0.2-0.5-0.3l0.6-1l4.9,2.7l-0.4,0.8
			c-0.5-0.3-0.9-0.4-1.2-0.4c-0.3,0-0.5,0.2-0.6,0.5c-0.1,0.3-0.2,0.7-0.2,1.1l0.1,3.1c0,0.2,0,0.4,0,0.7c0,0.3,0,0.5,0,0.8
			s0,0.5,0,0.8l0,0c0.2-0.2,0.5-0.3,0.8-0.5c0.3-0.2,0.6-0.4,0.9-0.6l2.8-1.8c0.1-0.1,0.3-0.2,0.5-0.3c0.2-0.1,0.4-0.3,0.6-0.4
			c0.2-0.1,0.4-0.2,0.6-0.3c-0.2-0.1-0.5-0.2-0.7-0.4c-0.3-0.1-0.5-0.3-0.7-0.4l0.6-1l3.8,2.1l-0.4,0.8c-0.6-0.3-1.1-0.3-1.7-0.2
			c-0.5,0.1-1.2,0.5-2,1c-0.8,0.5-1.6,1.1-2.4,1.6c-0.8,0.5-1.6,1-2.3,1.5c-0.1,0.2-0.3,0.4-0.4,0.7c-0.2,0.3-0.3,0.6-0.5,0.9
			c-0.2,0.3-0.3,0.6-0.4,0.8c-0.1,0.2-0.2,0.4-0.2,0.4c-0.2,0.3-0.4,0.6-0.5,0.9c-0.2,0.3-0.3,0.5-0.4,0.6c0.3,0.1,0.5,0.2,0.8,0.4
			c0.3,0.1,0.5,0.3,0.7,0.4l-0.6,1L286.1,80.3z"/>
		<path class="st1" d="M310,97c-1-0.8-1.7-1.7-2.2-2.7c-0.4-0.9-0.6-1.9-0.6-2.8c0-0.9,0.2-1.8,0.6-2.7c0.4-0.9,0.8-1.6,1.4-2.3
			c0.6-0.7,1.2-1.3,2-1.7c0.8-0.5,1.7-0.8,2.6-1c0.9-0.2,1.9-0.2,2.9,0.1c1,0.2,1.9,0.7,2.9,1.5c1,0.8,1.7,1.7,2.1,2.6
			c0.4,0.9,0.6,1.9,0.6,2.8s-0.2,1.9-0.5,2.7c-0.3,0.9-0.8,1.6-1.3,2.3c-0.5,0.7-1.2,1.2-2,1.7c-0.8,0.5-1.7,0.8-2.6,1
			c-0.9,0.2-1.9,0.2-2.9,0C311.9,98.2,310.9,97.7,310,97z M310.7,96.2c0.6,0.5,1.3,0.8,1.9,0.9c0.7,0.1,1.4,0,2-0.2
			c0.7-0.2,1.3-0.6,1.9-1c0.6-0.4,1.1-0.9,1.6-1.5c0.6-0.7,1-1.4,1.4-2.2c0.4-0.8,0.6-1.5,0.7-2.3c0.1-0.8,0-1.5-0.2-2.2
			c-0.2-0.7-0.7-1.3-1.3-1.8c-0.6-0.5-1.3-0.8-2-0.9c-0.7-0.1-1.4,0-2,0.2c-0.7,0.2-1.3,0.6-1.9,1c-0.6,0.4-1.1,0.9-1.6,1.5
			c-0.5,0.6-0.9,1.2-1.2,1.9c-0.4,0.7-0.6,1.5-0.7,2.3c-0.1,0.8-0.1,1.5,0.1,2.3C309.6,95,310.1,95.6,310.7,96.2z"/>
		<path class="st1" d="M319.1,104.6l0.7-0.6c0.3,0.3,0.6,0.5,0.9,0.5c0.3,0,0.5-0.1,0.8-0.3s0.6-0.5,1-0.8l6.1-5.8
			c0.3-0.3,0.5-0.5,0.7-0.7c0.2-0.2,0.4-0.3,0.5-0.5c-0.2-0.2-0.4-0.3-0.6-0.5c-0.2-0.2-0.4-0.4-0.5-0.5l0.8-0.8
			c0.6,0.6,1.2,1.2,1.7,1.8c0.6,0.6,1.2,1.2,1.8,1.8c1.1,1.2,1.8,2.3,2,3.4c0.2,1.1-0.1,2-1.1,2.8c-0.3,0.3-0.7,0.5-1.2,0.6
			c-0.5,0.1-1,0.1-1.6,0c-0.6-0.1-1.2-0.4-1.8-0.8l0,0c1,1.1,1.5,2.2,1.5,3.2c0,1-0.4,1.9-1.1,2.5c-0.6,0.6-1.3,0.9-2,1.1
			c-0.7,0.1-1.5,0-2.2-0.3s-1.4-0.8-2.1-1.5L319.1,104.6z M322.3,106.5c0.2,0.2,0.3,0.4,0.5,0.6s0.4,0.4,0.5,0.6
			c0.2,0.2,0.3,0.3,0.4,0.4c0.7,0.7,1.4,1.1,2.2,1.1c0.8,0,1.5-0.3,2.2-0.9c0.6-0.5,0.9-1.1,1-1.6c0.1-0.5,0-1-0.2-1.5
			c-0.2-0.5-0.5-0.9-0.9-1.3c-0.3-0.3-0.5-0.5-0.7-0.7c-0.2-0.2-0.4-0.4-0.7-0.7l-3.1,2.9c-0.3,0.3-0.5,0.5-0.7,0.7
			C322.7,106.2,322.5,106.4,322.3,106.5z M327.4,101.7l1,1c0.5,0.5,1,0.8,1.5,0.9c0.5,0.1,1,0.1,1.4-0.1c0.5-0.2,0.9-0.5,1.2-0.8
			c0.5-0.5,0.8-0.9,0.8-1.4c0.1-0.5,0-0.9-0.2-1.3c-0.2-0.4-0.4-0.8-0.7-1.1c-0.3-0.3-0.5-0.5-0.7-0.5s-0.5,0-0.7,0.1
			c-0.3,0.1-0.6,0.4-0.9,0.7L327.4,101.7z"/>
		<path class="st1" d="M343.2,117c0.5-0.5,0.9-1,1.2-1.6c0.3-0.6,0.4-1.2,0.3-1.8c0-0.6-0.3-1.2-0.8-1.8c-0.5-0.6-1-1-1.6-1.1
			c-0.6-0.1-1.2,0-1.6,0.4c-0.4,0.3-0.7,0.7-0.8,1.2c-0.1,0.5-0.1,1,0,1.6c0.1,0.6,0.2,1.2,0.4,1.9c0.1,0.5,0.3,1.1,0.4,1.7
			c0.1,0.6,0.2,1.2,0.2,1.7c0,0.6-0.1,1.1-0.3,1.6c-0.2,0.5-0.6,1-1.1,1.4c-0.6,0.5-1.3,0.7-2,0.8c-0.7,0.1-1.4-0.1-2.2-0.5
			c-0.7-0.4-1.4-1-2-1.8c-0.4-0.5-0.7-1-0.9-1.6c-0.3-0.6-0.4-1.3-0.5-1.9l-0.6,0.6l-0.8-1l3.5-2.9l0.6,0.8
			c-0.9,0.8-1.3,1.7-1.4,2.7c0,1,0.3,1.9,0.9,2.7c0.3,0.4,0.7,0.7,1.1,0.9c0.4,0.2,0.8,0.3,1.3,0.3c0.4,0,0.8-0.2,1.2-0.5
			c0.4-0.3,0.7-0.8,0.8-1.3c0.1-0.5,0.1-1,0-1.6c-0.1-0.6-0.2-1.2-0.4-1.8c-0.2-0.6-0.3-1.2-0.4-1.8c-0.1-0.6-0.1-1.2-0.1-1.7
			c0-0.6,0.1-1.1,0.4-1.6c0.2-0.5,0.6-0.9,1.1-1.4c0.3-0.2,0.7-0.4,1.1-0.6c0.4-0.2,0.9-0.2,1.4-0.2c0.5,0,1,0.2,1.6,0.5
			c0.5,0.3,1.1,0.8,1.6,1.5c0.3,0.4,0.6,0.9,0.9,1.5c0.3,0.6,0.4,1.2,0.5,1.9l0.6-0.6l0.8,1l-3.7,2.8L343.2,117z"/>
		<path class="st1" d="M347.4,131.9c0.5-0.3,0.8-0.6,0.9-0.9c0.1-0.3,0.1-0.6,0-0.9c-0.1-0.3-0.3-0.7-0.6-1.1l-0.7-1l-3.6,2.3
			c-0.3,0.2-0.6,0.4-0.8,0.5c-0.2,0.1-0.4,0.3-0.6,0.3l1.9,3c0.3,0.4,0.6,0.8,1,1.1c0.4,0.3,0.8,0.4,1.4,0.3c0.5,0,1.1-0.3,1.8-0.7
			l0.5,0.8l-3.6,2.1l-5.7-9.1l0.8-0.5c0.3,0.4,0.5,0.6,0.8,0.7c0.2,0.1,0.5,0.1,0.8-0.1c0.3-0.1,0.7-0.3,1.1-0.6l7.3-4.6
			c0.3-0.2,0.5-0.3,0.8-0.4c0.2-0.1,0.5-0.3,0.6-0.4c-0.1-0.2-0.3-0.4-0.4-0.6c-0.2-0.2-0.3-0.4-0.4-0.6l1-0.6l5.3,8.6l-3.1,2.1
			l-0.5-0.8c0.7-0.4,1.1-0.8,1.3-1.3c0.2-0.4,0.3-0.9,0.2-1.3c-0.1-0.4-0.3-0.8-0.5-1.2l-0.8-1.2c-0.2-0.4-0.5-0.6-0.7-0.7
			c-0.2-0.1-0.5-0.1-0.8,0c-0.3,0.1-0.7,0.3-1.2,0.6l-2.8,1.7l1.8,2.9l1.4-1l0.6,1l-3.9,2.4L347.4,131.9z"/>
		<path class="st1" d="M347.4,142.2l0.8-0.4c0.2,0.4,0.5,0.6,0.7,0.8c0.2,0.1,0.5,0.1,0.8,0c0.3-0.1,0.7-0.3,1.2-0.5l7.7-3.8
			c0.3-0.1,0.5-0.3,0.8-0.4c0.3-0.1,0.5-0.2,0.7-0.3c-0.1-0.2-0.2-0.4-0.4-0.7c-0.1-0.2-0.3-0.5-0.4-0.7l1-0.5
			c0.4,0.7,0.8,1.5,1.1,2.3c0.4,0.8,0.8,1.5,1.1,2.3c0.6,1.2,0.9,2.2,1,3.1c0.1,0.9,0,1.6-0.4,2.3c-0.3,0.6-0.9,1.1-1.7,1.5
			c-0.5,0.3-1,0.4-1.6,0.4c-0.6,0-1.2-0.1-1.8-0.4c-0.6-0.3-1.2-0.8-1.9-1.6c0,0.3-0.1,0.6-0.3,1c-0.2,0.3-0.4,0.7-0.6,1l-1.2,2
			c-0.3,0.4-0.5,0.8-0.6,1.1c-0.2,0.3-0.3,0.6-0.3,1c0,0.3,0.1,0.6,0.2,1l-0.8,0.4l-1.3-2.6c0.1-0.5,0.3-0.9,0.5-1.3
			c0.2-0.4,0.4-0.8,0.7-1.3l1.5-2.3c0.2-0.3,0.4-0.6,0.6-0.9c0.2-0.3,0.3-0.6,0.4-0.9c-0.1-0.2-0.2-0.4-0.3-0.6
			c-0.1-0.2-0.2-0.4-0.3-0.6l-3.1,1.5c-0.3,0.2-0.6,0.3-0.9,0.4c-0.3,0.1-0.5,0.2-0.7,0.3c0.1,0.1,0.2,0.3,0.3,0.5
			c0.1,0.2,0.2,0.3,0.3,0.5c0.1,0.2,0.2,0.3,0.2,0.4l-1,0.5L347.4,142.2z M356,143.5c0.3,0.7,0.7,1.2,1.2,1.6
			c0.4,0.4,0.9,0.6,1.5,0.7c0.6,0.1,1.2-0.1,1.9-0.4c0.5-0.2,0.9-0.5,1.2-0.8c0.3-0.3,0.5-0.7,0.5-1c0.1-0.4,0.1-0.8,0-1.2
			c-0.1-0.4-0.2-0.9-0.5-1.3c-0.2-0.4-0.4-0.6-0.6-0.8c-0.2-0.1-0.5-0.1-0.8,0c-0.3,0.1-0.7,0.2-1.1,0.5l-3.6,1.8
			c0.1,0.2,0.1,0.4,0.2,0.6C355.8,143.1,355.9,143.3,356,143.5z"/>
		<path class="st1" d="M356,162.3l8.8-8.1c0.5-0.4,0.9-0.8,1.2-1c0.3-0.3,0.6-0.4,0.9-0.6c-0.1-0.2-0.1-0.4-0.2-0.5
			c-0.1-0.2-0.1-0.4-0.2-0.5l1.1-0.4l1.8,4.9l-0.9,0.3c-0.2-0.6-0.5-0.9-0.9-1c-0.4-0.1-0.8,0.1-1.4,0.6c-0.6,0.6-1.3,1.1-1.9,1.7
			c-0.6,0.6-1.3,1.1-1.9,1.8c-0.6,0.5-1.1,1-1.6,1.4c-0.5,0.5-0.9,0.9-1.3,1.2l0,0c0.5,0,1,0,1.5,0c0.5,0,1,0,1.6,0c1,0,1.9,0,2.6,0
			c0.7,0,1.4,0,2,0c0.6,0,1.1,0,1.5,0c0.3,0,0.7,0,1,0s0.6,0,0.8,0.1c-0.1-0.2-0.2-0.5-0.3-0.7c-0.1-0.3-0.2-0.5-0.3-0.7l1.1-0.4
			l1.5,4.1l-0.9,0.3c-0.2-0.5-0.5-0.9-0.9-1.1c-0.4-0.2-1-0.3-1.8-0.3c-0.3,0-0.5,0-0.9,0c-0.3,0-0.7,0-1.1,0c-0.4,0-0.9,0-1.5,0
			c-0.6,0-1.3,0-2.1,0c-0.8,0-1.8,0-2.9,0c-1.1,0-2.5,0-4-0.1L356,162.3z"/>
		<path class="st1" d="M359,170.7l0.9-0.2c0.1,0.4,0.3,0.7,0.5,0.8c0.3,0.2,0.6,0.3,1,0.3c0.4,0.1,0.9,0.1,1.4,0.2l12.1,1.3l0.2,0.8
			l-10.2,7.2c-0.2,0.2-0.5,0.4-0.9,0.6c-0.4,0.2-0.8,0.4-1.1,0.5c0.1,0.2,0.2,0.4,0.2,0.7c0.1,0.2,0.1,0.4,0.2,0.6l-1.1,0.3
			l-1.2-4.9l0.9-0.2c0.1,0.5,0.3,0.8,0.5,0.9c0.2,0.1,0.5,0.1,0.8,0c0.3-0.1,0.5-0.2,0.8-0.4l1.5-1l-1.3-4.9l-1.9-0.2
			c-0.3,0-0.6,0-0.8-0.1c-0.3,0-0.5-0.1-0.8-0.1c0.1,0.2,0.2,0.5,0.2,0.8c0.1,0.3,0.1,0.5,0.2,0.7l-1.1,0.3L359,170.7z M365.3,173.3
			l1,4.2l3.1-2.1c0.4-0.3,0.8-0.5,1.2-0.8c0.4-0.3,0.8-0.5,1.2-0.7l0,0c-0.4,0-0.8-0.1-1.2-0.1c-0.4,0-0.9-0.1-1.4-0.1L365.3,173.3z
			"/>
		<path class="st1" d="M374.2,196.1c0.8-0.1,1.4-0.3,1.9-0.5c0.5-0.2,0.8-0.6,1.1-1c0.2-0.4,0.3-0.9,0.2-1.6l-0.2-1.5l-10.6,1.5
			c-0.4,0.1-0.7,0.1-1,0.1c-0.3,0-0.5,0.1-0.7,0c0.1,0.3,0.1,0.5,0.2,0.8c0.1,0.3,0.1,0.6,0.1,0.8l-1.1,0.2l-0.7-5.2l0.9-0.1
			c0.1,0.4,0.2,0.8,0.4,0.9c0.2,0.2,0.5,0.3,0.8,0.3c0.3,0,0.8,0,1.2-0.1l10.2-1.4l-0.3-1.7c-0.1-0.8-0.5-1.4-1.1-1.7
			c-0.6-0.3-1.5-0.4-2.7-0.2l-0.1-1l4.4-0.5l1.7,12.1l-4.4,0.7L374.2,196.1z"/>
		<path class="st1" d="M364.6,210.3c0-1.3,0.2-2.4,0.6-3.4c0.4-0.9,1-1.7,1.7-2.3c0.7-0.6,1.5-1,2.4-1.3c0.9-0.3,1.8-0.4,2.7-0.5
			c0.9,0,1.7,0.1,2.6,0.4c0.9,0.3,1.7,0.7,2.5,1.3c0.8,0.6,1.4,1.3,1.8,2.2c0.5,0.9,0.7,1.9,0.7,3.2c0,1.3-0.2,2.4-0.6,3.3
			c-0.4,0.9-1,1.7-1.8,2.3c-0.7,0.6-1.5,1.1-2.4,1.4c-0.9,0.3-1.7,0.5-2.6,0.5c-0.9,0-1.7-0.1-2.6-0.4c-0.9-0.3-1.7-0.7-2.5-1.3
			c-0.8-0.6-1.4-1.3-1.9-2.2C364.9,212.5,364.6,211.5,364.6,210.3z M365.7,210.3c0,0.8,0.2,1.5,0.6,2.1c0.4,0.6,0.9,1.1,1.5,1.4
			c0.6,0.4,1.3,0.6,2,0.8c0.7,0.2,1.4,0.2,2.2,0.2c0.9,0,1.7-0.1,2.5-0.4c0.8-0.2,1.5-0.5,2.2-1c0.6-0.4,1.2-1,1.5-1.6
			c0.4-0.6,0.5-1.3,0.5-2.2c0-0.8-0.2-1.5-0.6-2.1c-0.4-0.6-0.9-1.1-1.5-1.4c-0.6-0.4-1.3-0.6-2-0.8c-0.7-0.2-1.5-0.3-2.2-0.2
			c-0.7,0-1.5,0.1-2.3,0.3c-0.8,0.2-1.5,0.5-2.2,0.9c-0.7,0.4-1.2,0.9-1.6,1.6C365.9,208.7,365.7,209.5,365.7,210.3z"/>
		<path class="st1" d="M364.8,222.2l0.9,0.1c0,0.5,0,0.8,0.2,1c0.1,0.2,0.4,0.4,0.7,0.5c0.3,0.1,0.7,0.2,1.2,0.2l8.6,0.8
			c0.3,0,0.6,0.1,0.9,0.1c0.3,0,0.5,0.1,0.7,0.1c0-0.2,0-0.5,0-0.8c0-0.3,0-0.5,0-0.7l1.1,0.1c-0.1,0.8-0.1,1.7-0.2,2.5
			c-0.1,0.8-0.2,1.7-0.3,2.6c-0.1,1.3-0.4,2.3-0.8,3.1c-0.4,0.8-0.9,1.4-1.5,1.8c-0.6,0.4-1.4,0.5-2.2,0.4c-0.5,0-1.1-0.2-1.6-0.5
			c-0.5-0.3-1-0.7-1.3-1.3c-0.4-0.6-0.6-1.4-0.7-2.4c-0.2,0.3-0.4,0.5-0.8,0.7c-0.3,0.2-0.7,0.4-1,0.6l-2.1,1.1
			c-0.4,0.2-0.8,0.4-1.1,0.6c-0.3,0.2-0.6,0.4-0.7,0.7c-0.2,0.3-0.3,0.6-0.3,1l-0.9-0.1l0.3-2.9c0.3-0.3,0.7-0.6,1.1-0.8
			s0.8-0.5,1.3-0.7l2.4-1.2c0.3-0.2,0.6-0.3,0.9-0.5c0.3-0.2,0.6-0.4,0.9-0.6c0-0.2,0-0.4,0.1-0.6c0-0.2,0-0.4,0.1-0.6l-3.4-0.3
			c-0.4,0-0.7-0.1-1-0.1c-0.3,0-0.5-0.1-0.7-0.1c0,0.2,0,0.3,0,0.5c0,0.2,0,0.4,0,0.6c0,0.2,0,0.3,0,0.5l-1.1-0.1L364.8,222.2z
			 M371.5,227.7c-0.1,0.8,0,1.4,0.2,2c0.2,0.6,0.5,1,0.9,1.3c0.4,0.3,1,0.5,1.8,0.6c0.6,0.1,1,0,1.4-0.1c0.4-0.1,0.7-0.3,1-0.6
			c0.3-0.3,0.5-0.6,0.6-1c0.1-0.4,0.2-0.9,0.3-1.3c0-0.4,0-0.8-0.2-1c-0.1-0.2-0.4-0.4-0.7-0.5c-0.3-0.1-0.7-0.2-1.2-0.2l-4-0.4
			c0,0.2-0.1,0.4-0.1,0.6C371.5,227.3,371.5,227.5,371.5,227.7z"/>
		<path class="st1" d="M362.3,241.7l0.9,0.2c-0.1,0.5,0,0.8,0.1,1c0.1,0.2,0.3,0.4,0.7,0.5c0.3,0.1,0.7,0.2,1.2,0.3l2.1,0.5l6.4-2.4
			c0.5-0.2,1-0.3,1.4-0.4c0.4-0.1,0.7-0.1,1-0.1c0-0.2,0.1-0.4,0.1-0.6s0.1-0.4,0.1-0.6l1.1,0.2l-1.1,5.5l-0.9-0.2
			c0.1-0.5,0.1-0.9,0-1.2c-0.1-0.3-0.3-0.4-0.6-0.5c-0.3,0-0.7,0-1.1,0.2l-2.9,1.1c-0.2,0.1-0.4,0.2-0.6,0.2
			c-0.2,0.1-0.5,0.2-0.7,0.3c-0.3,0.1-0.5,0.2-0.8,0.3l0,0c0.2,0.2,0.5,0.4,0.7,0.6c0.3,0.2,0.5,0.4,0.9,0.7l2.5,2.1
			c0.1,0.1,0.3,0.2,0.5,0.4c0.2,0.2,0.4,0.3,0.5,0.5c0.2,0.2,0.3,0.3,0.4,0.5c0-0.2,0.1-0.5,0.1-0.8c0.1-0.3,0.1-0.6,0.1-0.8
			l1.1,0.2l-0.9,4.2l-0.9-0.2c0.1-0.6,0-1.1-0.4-1.6c-0.3-0.5-0.8-1-1.5-1.6c-0.8-0.6-1.5-1.2-2.2-1.8c-0.7-0.6-1.4-1.2-2.1-1.8
			c-0.2,0-0.5-0.1-0.8-0.2c-0.3-0.1-0.7-0.1-1-0.2c-0.3-0.1-0.6-0.1-0.9-0.2c-0.2-0.1-0.4-0.1-0.5-0.1c-0.4-0.1-0.7-0.1-1-0.2
			c-0.3-0.1-0.5-0.1-0.7-0.2c0,0.3-0.1,0.6-0.1,0.9c-0.1,0.3-0.1,0.6-0.1,0.8l-1.1-0.2L362.3,241.7z"/>
	</g>
	<circle class="st1" cx="344" cy="303.4" r="4"/>
	<circle class="st1" cx="84.4" cy="303.4" r="4"/>
</g>
</svg>
