<?xml version="1.0" encoding="UTF-8" standalone="no"?>
<svg
   inkscape:version="1.4.2 (ebf0e940, 2025-05-08)"
   sodipodi:docname="logo_akondlab_bright.svg"
   viewBox="0 0 286.9924 37.152531"
   height="37.152531"
   width="286.9924"
   xml:space="preserve"
   id="svg10"
   version="1.1"
   xmlns:inkscape="http://www.inkscape.org/namespaces/inkscape"
   xmlns:sodipodi="http://sodipodi.sourceforge.net/DTD/sodipodi-0.dtd"
   xmlns="http://www.w3.org/2000/svg"
   xmlns:svg="http://www.w3.org/2000/svg"
   xmlns:rdf="http://www.w3.org/1999/02/22-rdf-syntax-ns#"
   xmlns:cc="http://creativecommons.org/ns#"
   xmlns:dc="http://purl.org/dc/elements/1.1/"><metadata
     id="metadata16"><rdf:RDF><cc:Work
         rdf:about=""><dc:format>image/svg+xml</dc:format><dc:type
           rdf:resource="http://purl.org/dc/dcmitype/StillImage" /></cc:Work></rdf:RDF></metadata><defs
     id="defs14"><clipPath
       id="clipPath46"
       clipPathUnits="userSpaceOnUse"><path
         id="path44"
         d="M 0,480 H 640 V 0 H 0 Z" /></clipPath></defs><sodipodi:namedview
     inkscape:pagecheckerboard="false"
     inkscape:current-layer="g18"
     inkscape:window-maximized="0"
     inkscape:window-y="39"
     inkscape:window-x="48"
     inkscape:cy="25.687075"
     inkscape:cx="-2.1768707"
     inkscape:zoom="1.1484375"
     showgrid="false"
     id="namedview12"
     inkscape:window-height="886"
     inkscape:window-width="1328"
     inkscape:pageshadow="2"
     inkscape:pageopacity="0"
     guidetolerance="10"
     gridtolerance="10"
     objecttolerance="10"
     borderopacity="1"
     bordercolor="#666666"
     pagecolor="#000000"
     inkscape:showpageshadow="2"
     inkscape:deskcolor="#d1d1d1" /><g
     transform="matrix(1.3333333,0,0,-1.3333333,-271.83053,346.11866)"
     inkscape:label="logo_akondlab_2015_krzywe"
     inkscape:groupmode="layer"
     id="g18"><g
       transform="translate(205.9609,231.7246)"
       id="g20"><path
         id="path22"
         style="fill:#ff2600;fill-opacity:1;fill-rule:nonzero;stroke:none"
         d="M 0,0 -2.088,0.685 8.82,26.784 10.872,26.064 Z" /></g><g
       transform="translate(219.2808,231.7246)"
       id="g24"><path
         id="path26"
         style="fill:#ff2600;fill-opacity:1;fill-rule:nonzero;stroke:none"
         d="M 0,0 -2.088,0.685 8.82,26.784 10.872,26.064 Z" /></g><g
       transform="translate(232.6006,231.7246)"
       id="g28"><path
         id="path30"
         style="fill:#ff2600;fill-opacity:1;fill-rule:nonzero;stroke:none"
         d="M 0,0 -2.088,0.685 8.82,26.784 10.872,26.064 Z" /></g><g
       style="fill:#ffffff"
       transform="translate(250.6011,241.4453)"
       id="g32"><path
         id="path34"
         style="fill:#ffffff;fill-opacity:1;fill-rule:nonzero;stroke:none"
         d="M 0,0 H 11.232 L 5.616,13.536 Z M -3.744,-9.072 H -6.588 L 4.428,16.416 h 2.52 L 17.892,-9.072 h -2.88 l -2.808,6.696 H -0.972 Z" /></g><g
       style="fill:#ffffff"
       transform="translate(274.6123,241.625)"
       id="g36"><path
         id="path38"
         style="fill:#ffffff;fill-opacity:1;fill-rule:nonzero;stroke:none"
         d="m 0,0 h 0.108 l 7.776,7.596 h 3.528 l -8.496,-7.704 9.36,-9.144 h -3.6 L 0.108,-0.396 H 0 V -9.252 H -2.448 V 17.964 H 0 Z" /></g><g
       style="fill:#ffffff"
       transform="translate(303.9526,240.7969)"
       id="g48"><path
         id="path50"
         style="fill:#ffffff;fill-opacity:1;fill-rule:nonzero;stroke:none"
         d="m 0,0 c 0,0.937 -0.15,1.818 -0.45,2.646 -0.3,0.829 -0.726,1.548 -1.278,2.161 -0.553,0.611 -1.224,1.097 -2.016,1.458 -0.792,0.359 -1.68,0.539 -2.664,0.539 -0.985,0 -1.866,-0.18 -2.646,-0.539 C -9.834,5.904 -10.5,5.418 -11.052,4.807 -11.604,4.194 -12.03,3.475 -12.33,2.646 -12.63,1.818 -12.78,0.937 -12.78,0 c 0,-0.936 0.15,-1.817 0.45,-2.646 0.3,-0.828 0.726,-1.547 1.278,-2.16 0.552,-0.612 1.218,-1.092 1.998,-1.44 0.78,-0.348 1.661,-0.522 2.646,-0.522 0.984,0 1.872,0.174 2.664,0.522 0.792,0.348 1.463,0.828 2.016,1.44 0.552,0.613 0.978,1.332 1.278,2.16 C -0.15,-1.817 0,-0.936 0,0 m 2.592,0 c 0,-1.272 -0.222,-2.448 -0.666,-3.527 -0.445,-1.08 -1.062,-2.017 -1.854,-2.809 -0.792,-0.792 -1.74,-1.41 -2.844,-1.853 -1.104,-0.445 -2.316,-0.666 -3.636,-0.666 -1.296,0 -2.497,0.221 -3.6,0.666 -1.104,0.443 -2.052,1.061 -2.844,1.853 -0.792,0.792 -1.41,1.729 -1.854,2.809 -0.444,1.079 -0.666,2.255 -0.666,3.527 0,1.272 0.222,2.448 0.666,3.528 0.444,1.08 1.062,2.016 1.854,2.808 0.792,0.792 1.74,1.41 2.844,1.854 1.103,0.444 2.304,0.666 3.6,0.666 1.32,0 2.532,-0.222 3.636,-0.666 C -1.668,7.746 -0.72,7.128 0.072,6.336 0.864,5.544 1.481,4.608 1.926,3.528 2.37,2.448 2.592,1.272 2.592,0" /></g><g
       style="fill:#ffffff"
       transform="translate(313.9961,249.2207)"
       id="g52"><path
         id="path54"
         style="fill:#ffffff;fill-opacity:1;fill-rule:nonzero;stroke:none"
         d="M 0,0 C 0.048,-0.456 0.084,-0.96 0.108,-1.512 0.131,-2.064 0.144,-2.52 0.144,-2.88 h 0.072 c 0.48,0.984 1.26,1.782 2.34,2.395 1.08,0.611 2.219,0.918 3.42,0.918 2.135,0 3.738,-0.637 4.805,-1.909 1.069,-1.272 1.603,-2.952 1.603,-5.04 V -16.848 H 9.936 v 9.325 c 0,0.887 -0.073,1.691 -0.216,2.412 C 9.576,-4.392 9.33,-3.774 8.982,-3.258 8.634,-2.742 8.166,-2.34 7.578,-2.052 6.99,-1.764 6.251,-1.62 5.364,-1.62 4.716,-1.62 4.086,-1.752 3.474,-2.016 2.862,-2.28 2.316,-2.682 1.836,-3.222 1.355,-3.762 0.972,-4.445 0.684,-5.273 0.396,-6.102 0.252,-7.08 0.252,-8.208 v -8.64 h -2.448 v 13.14 c 0,0.456 -0.012,1.044 -0.036,1.765 -0.024,0.719 -0.06,1.368 -0.108,1.943 z" /></g><g
       style="fill:#ffffff"
       transform="translate(334.084,240.7969)"
       id="g56"><path
         id="path58"
         style="fill:#ffffff;fill-opacity:1;fill-rule:nonzero;stroke:none"
         d="m 0,0 c 0,-0.936 0.145,-1.817 0.432,-2.646 0.289,-0.828 0.703,-1.547 1.242,-2.16 0.54,-0.612 1.206,-1.092 1.998,-1.44 0.792,-0.348 1.692,-0.522 2.7,-0.522 0.937,0 1.8,0.174 2.592,0.522 0.792,0.348 1.475,0.822 2.052,1.422 0.576,0.599 1.026,1.314 1.35,2.142 0.323,0.828 0.486,1.722 0.486,2.682 0,0.96 -0.163,1.854 -0.486,2.683 C 12.042,3.51 11.592,4.23 11.016,4.842 10.439,5.454 9.756,5.934 8.964,6.282 8.172,6.63 7.309,6.804 6.372,6.804 5.364,6.804 4.464,6.624 3.672,6.265 2.88,5.904 2.214,5.418 1.674,4.807 1.135,4.194 0.721,3.475 0.432,2.646 0.145,1.818 0,0.937 0,0 M 12.492,-5.58 C 11.771,-6.66 10.836,-7.476 9.684,-8.027 8.532,-8.58 7.344,-8.855 6.12,-8.855 c -1.32,0 -2.515,0.227 -3.582,0.683 -1.068,0.456 -1.979,1.08 -2.735,1.872 -0.757,0.792 -1.346,1.728 -1.765,2.808 -0.421,1.08 -0.63,2.244 -0.63,3.492 0,1.248 0.209,2.412 0.63,3.492 0.419,1.08 1.008,2.016 1.765,2.808 C 0.559,7.092 1.47,7.716 2.538,8.172 3.605,8.628 4.8,8.856 6.12,8.856 7.344,8.856 8.532,8.574 9.684,8.01 10.836,7.446 11.771,6.611 12.492,5.508 h 0.072 v 13.284 h 2.448 V -8.424 h -2.448 v 2.844 z" /></g><g
       style="fill:#ffffff"
       transform="translate(358.3838,234.6768)"
       id="g60"><path
         id="path62"
         style="fill:#ffffff;fill-opacity:1;fill-rule:nonzero;stroke:none"
         d="M 0,0 H 11.88 V -2.304 H -2.593 V 23.185 H 0 Z" /></g><g
       style="fill:#ffffff"
       transform="translate(383.9082,240.7969)"
       id="g64"><path
         id="path66"
         style="fill:#ffffff;fill-opacity:1;fill-rule:nonzero;stroke:none"
         d="m 0,0 c -1.009,0 -2.023,-0.042 -3.043,-0.126 -1.02,-0.084 -1.943,-0.252 -2.771,-0.504 -0.829,-0.252 -1.506,-0.618 -2.035,-1.098 -0.528,-0.48 -0.792,-1.116 -0.792,-1.908 0,-0.6 0.114,-1.104 0.342,-1.511 0.229,-0.41 0.534,-0.739 0.918,-0.991 0.384,-0.252 0.811,-0.432 1.278,-0.54 0.468,-0.108 0.942,-0.162 1.422,-0.162 0.865,0 1.632,0.15 2.304,0.45 0.672,0.3 1.236,0.707 1.692,1.224 0.456,0.516 0.804,1.11 1.044,1.782 0.241,0.672 0.36,1.38 0.36,2.124 V 0 Z m 0.719,2.48 c 0,1.454 -0.384,2.538 -1.152,3.252 -0.768,0.714 -1.883,1.072 -3.348,1.072 -1.008,0 -1.944,-0.18 -2.808,-0.539 C -7.453,5.904 -8.186,5.424 -8.785,4.824 l -1.367,1.62 c 0.695,0.696 1.613,1.272 2.754,1.728 1.139,0.456 2.429,0.684 3.869,0.684 0.912,0 1.764,-0.126 2.556,-0.377 C -0.181,8.227 0.516,7.849 1.115,7.344 1.715,6.84 2.184,6.204 2.52,5.437 2.855,4.668 3.023,3.768 3.023,2.736 v -7.38 c 0,-0.648 0.024,-1.32 0.073,-2.016 0.047,-0.696 0.119,-1.284 0.216,-1.764 H 1.115 c -0.072,0.408 -0.132,0.852 -0.179,1.332 -0.049,0.48 -0.073,0.948 -0.073,1.404 H 0.791 c -0.768,-1.128 -1.638,-1.938 -2.609,-2.43 -0.973,-0.491 -2.143,-0.737 -3.51,-0.737 -0.649,0 -1.315,0.089 -1.998,0.27 -0.685,0.181 -1.309,0.475 -1.873,0.885 -0.564,0.409 -1.031,0.939 -1.404,1.59 -0.372,0.649 -0.557,1.444 -0.557,2.383 0,1.3 0.329,2.33 0.99,3.088 0.659,0.758 1.541,1.325 2.646,1.698 1.103,0.374 2.37,0.614 3.797,0.722 1.428,0.109 2.911,0.163 4.446,0.163 z" /></g><g
       style="fill:#ffffff"
       transform="translate(408.3164,240.7969)"
       id="g68"><path
         id="path70"
         style="fill:#ffffff;fill-opacity:1;fill-rule:nonzero;stroke:none"
         d="m 0,0 c 0,0.937 -0.145,1.818 -0.433,2.646 -0.288,0.829 -0.702,1.548 -1.242,2.161 -0.54,0.611 -1.206,1.097 -1.998,1.458 -0.792,0.359 -1.692,0.539 -2.7,0.539 -0.936,0 -1.8,-0.174 -2.592,-0.522 C -9.757,5.934 -10.441,5.454 -11.017,4.842 -11.593,4.23 -12.043,3.51 -12.367,2.683 -12.691,1.854 -12.853,0.96 -12.853,0 c 0,-0.96 0.162,-1.854 0.486,-2.682 0.324,-0.828 0.774,-1.543 1.35,-2.142 0.576,-0.6 1.26,-1.074 2.052,-1.422 0.792,-0.348 1.656,-0.522 2.592,-0.522 1.008,0 1.908,0.174 2.7,0.522 0.792,0.348 1.458,0.828 1.998,1.44 0.54,0.613 0.954,1.332 1.242,2.16 C -0.145,-1.817 0,-0.936 0,0 m -12.564,-5.58 v -2.844 h -2.449 v 27.216 h 2.449 V 5.508 h 0.072 c 0.719,1.103 1.655,1.938 2.807,2.502 1.152,0.564 2.34,0.846 3.564,0.846 1.32,0 2.514,-0.228 3.582,-0.684 C -1.471,7.716 -0.559,7.092 0.197,6.3 0.953,5.508 1.541,4.572 1.961,3.492 2.381,2.412 2.592,1.248 2.592,0 2.592,-1.248 2.381,-2.412 1.961,-3.492 1.541,-4.572 0.953,-5.508 0.197,-6.3 c -0.756,-0.792 -1.668,-1.416 -2.736,-1.872 -1.068,-0.456 -2.262,-0.683 -3.582,-0.683 -1.224,0 -2.412,0.275 -3.564,0.828 -1.152,0.551 -2.088,1.367 -2.807,2.447 z" /></g><g
       transform="translate(419.1172,234.1006)"
       id="g72"><path
         id="path74"
         style="fill:#ff2600;fill-opacity:1;fill-rule:nonzero;stroke:none"
         d="m 0,0 c 0,-0.504 -0.181,-0.953 -0.541,-1.35 -0.359,-0.395 -0.828,-0.593 -1.403,-0.593 -0.577,0 -1.044,0.198 -1.405,0.593 -0.36,0.397 -0.54,0.846 -0.54,1.35 0,0.505 0.18,0.954 0.54,1.351 0.361,0.395 0.828,0.593 1.405,0.593 0.575,0 1.044,-0.198 1.403,-0.593 C -0.181,0.954 0,0.505 0,0" /></g></g></svg>
