<?xml version="1.0" encoding="UTF-8" standalone="no"?>
<!-- Created with Inkscape (http://www.inkscape.org/) -->

<svg
   width="89.8685mm"
   height="48.165039mm"
   viewBox="0 0 89.8685 48.165039"
   version="1.1"
   id="svg1"
   inkscape:version="1.4.2 (ebf0e940, 2025-05-08)"
   sodipodi:docname="logo_araucaria_blue.svg"
   xmlns:inkscape="http://www.inkscape.org/namespaces/inkscape"
   xmlns:sodipodi="http://sodipodi.sourceforge.net/DTD/sodipodi-0.dtd"
   xmlns="http://www.w3.org/2000/svg"
   xmlns:svg="http://www.w3.org/2000/svg">
  <sodipodi:namedview
     id="namedview1"
     pagecolor="#ffffff"
     bordercolor="#666666"
     borderopacity="1.0"
     inkscape:showpageshadow="2"
     inkscape:pageopacity="0.0"
     inkscape:pagecheckerboard="0"
     inkscape:deskcolor="#d1d1d1"
     inkscape:document-units="mm"
     inkscape:zoom="0.36236119"
     inkscape:cx="15.178226"
     inkscape:cy="246.99113"
     inkscape:window-width="1328"
     inkscape:window-height="886"
     inkscape:window-x="48"
     inkscape:window-y="39"
     inkscape:window-maximized="0"
     inkscape:current-layer="layer1" />
  <defs
     id="defs1" />
  <g
     inkscape:label="Layer 1"
     inkscape:groupmode="layer"
     id="layer1"
     transform="translate(-66.675002,-58.47291)">
    <path
       id="path1"
       d="m 71.963372,90.670648 h 5.03957 L 73.98725,82.91274 68.868166,96.027742 h -1.785693 l 6.150728,-15.555663 h 1.527767 l 6.190358,15.555663 h -1.80554 L 77.677549,92.33715 H 71.26902 l 0.694352,-1.666502"
       style="fill:#016ddc;fill-opacity:1;fill-rule:nonzero;stroke:#016ddc;stroke-width:0.0184702;stroke-opacity:1" />
    <path
       id="path2"
       d="m 71.963372,90.670648 h 5.03957 L 73.98725,82.91274 68.868166,96.027742 h -1.785693 l 6.150728,-15.555663 h 1.527767 l 6.190358,15.555663 h -1.80554 L 77.677549,92.33715 H 71.26902 Z"
       style="fill:#016ddc;stroke:#016ddc;stroke-width:0.554106;stroke-linecap:butt;stroke-linejoin:miter;stroke-miterlimit:10;stroke-dasharray:none;stroke-opacity:1;fill-opacity:1" />
    <path
       id="path3"
       d="m 84.165498,96.027742 h -1.646805 v -7.777859 c 0,-2.089704 1.038231,-3.134752 3.115135,-3.134752 h 1.309355 v 1.666573 h -1.309355 c -0.979142,0 -1.46833,0.489461 -1.46833,1.468179 v 7.777859"
       style="fill:#016ddc;fill-opacity:1;fill-rule:nonzero;stroke:#016ddc;stroke-width:0.0184702;stroke-opacity:1" />
    <path
       id="path4"
       d="m 84.165498,96.027742 h -1.646805 v -7.777859 c 0,-2.089704 1.038231,-3.134752 3.115135,-3.134752 h 1.309355 v 1.666573 h -1.309355 c -0.979142,0 -1.46833,0.489461 -1.46833,1.468179 z"
       style="fill:#016ddc;stroke:#016ddc;stroke-width:0.554106;stroke-linecap:butt;stroke-linejoin:miter;stroke-miterlimit:10;stroke-dasharray:none;stroke-opacity:1;fill-opacity:1" />
    <path
       id="path5"
       d="m 89.204867,86.781704 v -1.666573 h 5.912697 c 2.08972,0 3.13477,1.045048 3.13477,3.134752 v 4.623118 c 0,2.10301 -1.04505,3.154741 -3.13477,3.154741 h -3.710305 c -2.090281,0 -3.134957,-0.9852 -3.134957,-2.956402 v -0.416656 c 0,-1.94436 1.044676,-2.916633 3.134957,-2.916633 h 4.20623 v 1.666571 h -4.20623 c -0.979106,0 -1.4682,0.416664 -1.4682,1.250062 v 0.416656 c 0,0.860033 0.489094,1.289614 1.4682,1.289614 h 3.710305 c 0.978738,0 1.468013,-0.495893 1.468013,-1.487953 v -4.623118 c 0,-0.978718 -0.489275,-1.468179 -1.468013,-1.468179 h -5.912697"
       style="fill:#016ddc;fill-opacity:1;fill-rule:nonzero;stroke:#016ddc;stroke-width:0.0184702;stroke-opacity:1" />
    <path
       id="path6"
       d="m 89.204867,86.781704 v -1.666573 h 5.912697 c 2.08972,0 3.13477,1.045048 3.13477,3.134752 v 4.623118 c 0,2.10301 -1.04505,3.154741 -3.13477,3.154741 h -3.710305 c -2.090281,0 -3.134957,-0.9852 -3.134957,-2.956402 v -0.416656 c 0,-1.94436 1.044676,-2.916633 3.134957,-2.916633 h 4.20623 v 1.666571 h -4.20623 c -0.979106,0 -1.4682,0.416664 -1.4682,1.250062 v 0.416656 c 0,0.860033 0.489094,1.289614 1.4682,1.289614 h 3.710305 c 0.978738,0 1.468013,-0.495893 1.468013,-1.487953 v -4.623118 c 0,-0.978718 -0.489275,-1.468179 -1.468013,-1.468179 z"
       style="fill:#016ddc;stroke:#016ddc;stroke-width:0.554106;stroke-linecap:butt;stroke-linejoin:miter;stroke-miterlimit:10;stroke-dasharray:none;stroke-opacity:1;fill-opacity:1" />
    <path
       id="path7"
       d="m 109.30363,85.115131 h 1.66657 v 7.797415 c 0,2.076966 -1.05151,3.115196 -3.15453,3.115196 h -3.7103 c -2.0768,0 -3.11501,-1.051731 -3.11501,-3.154741 v -7.75787 h 1.64681 v 7.75787 c 0,0.99206 0.48909,1.487953 1.4682,1.487953 h 3.7103 c 0.99185,0 1.48796,-0.482618 1.48796,-1.448408 v -7.797415"
       style="fill:#016ddc;fill-opacity:1;fill-rule:nonzero;stroke:#016ddc;stroke-width:0.0184702;stroke-opacity:1" />
    <path
       id="path8"
       d="m 109.30363,85.115131 h 1.66657 v 7.797415 c 0,2.076966 -1.05151,3.115196 -3.15453,3.115196 h -3.7103 c -2.0768,0 -3.11501,-1.051731 -3.11501,-3.154741 v -7.75787 h 1.64681 v 7.75787 c 0,0.99206 0.48909,1.487953 1.4682,1.487953 h 3.7103 c 0.99185,0 1.48796,-0.482618 1.48796,-1.448408 z"
       style="fill:#016ddc;stroke:#016ddc;stroke-width:0.554106;stroke-linecap:butt;stroke-linejoin:miter;stroke-miterlimit:10;stroke-dasharray:none;stroke-opacity:1;fill-opacity:1" />
    <path
       id="path9"
       d="m 121.24778,94.360954 v 1.666788 h -4.42454 c -2.07679,0 -3.11501,-1.051731 -3.11501,-3.154741 v -4.623118 c 0,-2.089704 1.03822,-3.134752 3.11501,-3.134752 h 4.42454 v 1.666573 h -4.42454 c -0.97911,0 -1.4682,0.489461 -1.4682,1.468179 v 4.623118 c 0,0.99206 0.48909,1.487953 1.4682,1.487953 h 4.42454"
       style="fill:#016ddc;fill-opacity:1;fill-rule:nonzero;stroke:#016ddc;stroke-width:0.0184702;stroke-opacity:1" />
    <path
       id="path10"
       d="m 121.24778,94.360954 v 1.666788 h -4.42454 c -2.07679,0 -3.11501,-1.051731 -3.11501,-3.154741 v -4.623118 c 0,-2.089704 1.03822,-3.134752 3.11501,-3.134752 h 4.42454 v 1.666573 h -4.42454 c -0.97911,0 -1.4682,0.489461 -1.4682,1.468179 v 4.623118 c 0,0.99206 0.48909,1.487953 1.4682,1.487953 z"
       style="fill:#016ddc;stroke:#016ddc;stroke-width:0.554106;stroke-linecap:butt;stroke-linejoin:miter;stroke-miterlimit:10;stroke-dasharray:none;stroke-opacity:1;fill-opacity:1" />
    <path
       id="path11"
       d="m 124.36242,86.781704 v -1.666573 h 5.9127 c 2.08972,0 3.13495,1.045048 3.13495,3.134752 v 4.623118 c 0,2.10301 -1.04523,3.154741 -3.13495,3.154741 h -3.7103 c -2.0901,0 -3.13496,-0.9852 -3.13496,-2.956402 v -0.416656 c 0,-1.94436 1.04486,-2.916633 3.13496,-2.916633 h 4.20623 v 1.666571 h -4.20623 c -0.97911,0 -1.4682,0.416664 -1.4682,1.250062 v 0.416656 c 0,0.860033 0.48909,1.289614 1.4682,1.289614 h 3.7103 c 0.97874,0 1.4682,-0.495893 1.4682,-1.487953 v -4.623118 c 0,-0.978718 -0.48946,-1.468179 -1.4682,-1.468179 h -5.9127"
       style="fill:#016ddc;fill-opacity:1;fill-rule:nonzero;stroke:#016ddc;stroke-width:0.0184702;stroke-opacity:1" />
    <path
       id="path12"
       d="m 124.36242,86.781704 v -1.666573 h 5.9127 c 2.08972,0 3.13495,1.045048 3.13495,3.134752 v 4.623118 c 0,2.10301 -1.04523,3.154741 -3.13495,3.154741 h -3.7103 c -2.0901,0 -3.13496,-0.9852 -3.13496,-2.956402 v -0.416656 c 0,-1.94436 1.04486,-2.916633 3.13496,-2.916633 h 4.20623 v 1.666571 h -4.20623 c -0.97911,0 -1.4682,0.416664 -1.4682,1.250062 v 0.416656 c 0,0.860033 0.48909,1.289614 1.4682,1.289614 h 3.7103 c 0.97874,0 1.4682,-0.495893 1.4682,-1.487953 v -4.623118 c 0,-0.978718 -0.48946,-1.468179 -1.4682,-1.468179 z"
       style="fill:#016ddc;stroke:#016ddc;stroke-width:0.554106;stroke-linecap:butt;stroke-linejoin:miter;stroke-miterlimit:10;stroke-dasharray:none;stroke-opacity:1;fill-opacity:1" />
    <path
       id="path13"
       d="m 137.79473,96.027742 h -1.64681 v -7.777859 c 0,-2.089704 1.03821,-3.134752 3.11501,-3.134752 h 1.30954 v 1.666573 h -1.30954 c -0.97911,0 -1.4682,0.489461 -1.4682,1.468179 v 7.777859"
       style="fill:#016ddc;fill-opacity:1;fill-rule:nonzero;stroke:#016ddc;stroke-width:0.0184702;stroke-opacity:1" />
    <path
       id="path14"
       d="m 137.79473,96.027742 h -1.64681 v -7.777859 c 0,-2.089704 1.03821,-3.134752 3.11501,-3.134752 h 1.30954 v 1.666573 h -1.30954 c -0.97911,0 -1.4682,0.489461 -1.4682,1.468179 z"
       style="fill:#016ddc;stroke:#016ddc;stroke-width:0.554106;stroke-linecap:butt;stroke-linejoin:miter;stroke-miterlimit:10;stroke-dasharray:none;stroke-opacity:1;fill-opacity:1" />
    <path
       id="path15"
       d="m 142.06043,85.115131 h 1.66657 v 10.912611 h -1.66657 z m 1.64681,-4.643052 v 1.865315 h -1.64681 v -1.865315 h 1.64681"
       style="fill:#016ddc;fill-opacity:1;fill-rule:nonzero;stroke:#016ddc;stroke-width:0.0184702;stroke-opacity:1" />
    <path
       id="path16"
       d="m 142.06043,85.115131 h 1.66657 v 10.912611 h -1.66657 z m 1.64681,-4.643052 v 1.865315 h -1.64681 v -1.865315 z"
       style="fill:#016ddc;stroke:#016ddc;stroke-width:0.554106;stroke-linecap:butt;stroke-linejoin:miter;stroke-miterlimit:10;stroke-dasharray:none;stroke-opacity:1;fill-opacity:1" />
    <path
       id="path17"
       d="m 147.2188,86.781704 v -1.666573 h 5.91269 c 2.08973,0 3.13496,1.045048 3.13496,3.134752 v 4.623118 c 0,2.10301 -1.04523,3.154741 -3.13496,3.154741 h -3.7103 c -2.09009,0 -3.13495,-0.9852 -3.13495,-2.956402 v -0.416656 c 0,-1.94436 1.04486,-2.916633 3.13495,-2.916633 h 4.20642 v 1.666571 h -4.20642 c -0.97911,0 -1.46819,0.416664 -1.46819,1.250062 v 0.416656 c 0,0.860033 0.48908,1.289614 1.46819,1.289614 h 3.7103 c 0.97874,0 1.46821,-0.495893 1.46821,-1.487953 v -4.623118 c 0,-0.978718 -0.48947,-1.468179 -1.46821,-1.468179 h -5.91269"
       style="fill:#016ddc;fill-opacity:1;fill-rule:nonzero;stroke:#016ddc;stroke-width:0.0184702;stroke-opacity:1" />
    <path
       id="path18"
       d="m 147.2188,86.781704 v -1.666573 h 5.91269 c 2.08973,0 3.13496,1.045048 3.13496,3.134752 v 4.623118 c 0,2.10301 -1.04523,3.154741 -3.13496,3.154741 h -3.7103 c -2.09009,0 -3.13495,-0.9852 -3.13495,-2.956402 v -0.416656 c 0,-1.94436 1.04486,-2.916633 3.13495,-2.916633 h 4.20642 v 1.666571 h -4.20642 c -0.97911,0 -1.46819,0.416664 -1.46819,1.250062 v 0.416656 c 0,0.860033 0.48908,1.289614 1.46819,1.289614 h 3.7103 c 0.97874,0 1.46821,-0.495893 1.46821,-1.487953 v -4.623118 c 0,-0.978718 -0.48947,-1.468179 -1.46821,-1.468179 z"
       style="fill:#016ddc;stroke:#016ddc;stroke-width:0.554106;stroke-linecap:butt;stroke-linejoin:miter;stroke-miterlimit:10;stroke-dasharray:none;stroke-opacity:1;fill-opacity:1" />
    <path
       id="path19"
       d="m 73.884352,99.057932 v 7.580018 h -0.899981 v -8.501872 h 4.055659 c 1.1422,0 1.713411,0.574812 1.713411,1.724389 v 1.225163 c 0,1.14255 -0.571211,1.71347 -1.713411,1.71347 h -2.548395 v -0.90006 h 2.548395 c 0.534917,0 0.80244,-0.27114 0.80244,-0.81341 v -1.225163 c 0,-0.535073 -0.267523,-0.802535 -0.80244,-0.802535 h -3.155678"
       style="fill:#016ddc;fill-opacity:1;fill-rule:nonzero;stroke:#016ddc;stroke-width:0.0184702;stroke-opacity:1" />
    <path
       id="path20"
       d="m 80.878738,99.057932 v 7.580018 h -0.900073 v -8.501872 h 3.730417 c 1.149423,0 1.724162,0.574812 1.724162,1.724389 v 1.008493 c 0,1.14942 -0.574739,1.72423 -1.724162,1.72423 h -0.997744 l 2.938747,4.04476 h -1.106091 l -3.058046,-4.17499 v -0.76984 h 2.223134 c 0.542213,0 0.813263,-0.27489 0.813263,-0.82416 v -1.008493 c 0,-0.535073 -0.27105,-0.802535 -0.813263,-0.802535 h -2.830344"
       style="fill:#016ddc;fill-opacity:1;fill-rule:nonzero;stroke:#016ddc;stroke-width:0.0184702;stroke-opacity:1" />
    <path
       id="path21"
       d="m 91.408368,105.727 c 0.542101,0 0.813245,-0.26378 0.813245,-0.79163 v -5.074903 c 0,-0.535073 -0.271144,-0.802535 -0.813245,-0.802535 h -3.036327 c -0.535267,0 -0.802532,0.267462 -0.802532,0.802535 v 5.053263 c 0,0.54234 0.267265,0.81327 0.802532,0.81327 z m -4.738911,-5.866533 c 0,-1.149577 0.567405,-1.724389 1.702584,-1.724389 h 3.036327 c 1.1494,0 1.724197,0.574812 1.724197,1.724389 v 5.074903 c 0,1.1352 -0.574797,1.70258 -1.724197,1.70258 h -3.036327 c -1.135179,0 -1.702584,-0.57459 -1.702584,-1.72422 v -5.053263"
       style="fill:#016ddc;fill-opacity:1;fill-rule:nonzero;stroke:#016ddc;stroke-width:0.0184702;stroke-opacity:1" />
    <path
       id="path22"
       d="M 93.815593,106.63795 V 105.727 h 1.702588 c 0.549305,0 0.824141,-0.26378 0.824141,-0.79163 v -6.799292 h 0.900061 v 6.799292 c 0,1.1352 -0.574797,1.70258 -1.724202,1.70258 h -1.702588"
       style="fill:#016ddc;fill-opacity:1;fill-rule:nonzero;stroke:#016ddc;stroke-width:0.0184702;stroke-opacity:1" />
    <path
       id="path23"
       d="m 98.727938,98.136078 h 4.890742 v 0.921854 h -3.990681 v 2.635188 h 3.882261 v 0.90007 h -3.882261 v 3.13381 h 4.044981 v 0.91095 h -4.945042 v -8.501872"
       style="fill:#016ddc;fill-opacity:1;fill-rule:nonzero;stroke:#016ddc;stroke-width:0.0184702;stroke-opacity:1" />
    <path
       id="path24"
       d="m 110.02748,105.727 v 0.91095 h -3.43749 c -1.13518,0 -1.7026,-0.57459 -1.7026,-1.72422 v -5.053263 c 0,-1.149577 0.56742,-1.724389 1.7026,-1.724389 h 3.43749 v 0.921854 h -3.43749 c -0.53527,0 -0.80254,0.267462 -0.80254,0.802535 v 5.053263 c 0,0.54234 0.26727,0.81327 0.80254,0.81327 h 3.43749"
       style="fill:#016ddc;fill-opacity:1;fill-rule:nonzero;stroke:#016ddc;stroke-width:0.0184702;stroke-opacity:1" />
    <path
       id="path25"
       d="m 110.69961,98.136078 h 5.8885 v 0.921854 h -2.45081 v 7.580018 h -0.91077 v -7.580018 h -2.52692 v -0.921854"
       style="fill:#016ddc;fill-opacity:1;fill-rule:nonzero;stroke:#016ddc;stroke-width:0.0184702;stroke-opacity:1" />
    <path
       id="path26"
       d="m 90.359257,80.614673 c -3.77458,0.466188 -8.912632,-2.274243 -10.313416,-5.360066 -0.900277,-1.983521 -0.65887,-3.859913 0.676048,-5.540705 2.090813,-2.631826 4.965321,-3.998624 8.178959,-4.598906 1.355345,-0.253043 2.813571,-0.211485 4.189416,-0.03177 1.494984,0.195231 2.671912,1.554826 2.863999,2.882467 0.17787,1.228087 -0.644239,2.859379 -1.952493,3.501035 -0.805672,0.395078 -1.726042,0.603238 -2.618705,0.756172 -0.574059,0.09826 -1.218302,-0.07221 -1.338911,-0.811029 -0.118022,-0.722371 0.463047,-0.938473 0.994807,-1.115602 0.406345,-0.135203 0.839287,-0.188951 1.255056,-0.299034 0.787013,-0.208159 1.292732,-0.627434 1.294943,-1.538755 0.0023,-0.924068 -0.530829,-1.311942 -1.311939,-1.521949 -1.675987,-0.45049 -3.291025,-0.03528 -4.90865,0.345763 -1.924969,0.453444 -3.633523,1.309171 -5.041011,2.719559 -1.784983,1.788658 -1.864923,4.619224 -0.187879,6.507252 1.781732,2.005869 4.040882,3.163399 6.630413,3.736717 0.530833,0.117655 1.059451,0.245651 1.589363,0.368852"
       style="fill:#016ddc;fill-opacity:1;fill-rule:evenodd;stroke:#016ddc;stroke-width:0.0184702;stroke-opacity:1" />
    <path
       id="path27"
       d="m 92.062585,59.33621 c 4.110922,-0.08238 7.476569,1.462104 10.024725,4.762737 1.17064,1.516222 0.84187,4.109814 -0.0371,5.38851 -1.14884,1.671742 -2.689267,2.856792 -4.482172,3.736715 -2.238034,1.098426 -4.586527,1.826893 -7.103656,1.607466 -0.883062,-0.07702 -1.865497,-0.326555 -2.576044,-0.822111 -1.891539,-1.319329 -1.98555,-3.422907 -0.359062,-5.073223 0.997393,-1.012169 2.232313,-1.557965 3.649533,-1.436061 0.41946,0.03602 1.004043,0.434605 1.153468,0.810105 0.245102,0.615798 -0.355365,0.889343 -0.872716,1.054097 -0.409486,0.130584 -0.830795,0.225521 -1.249328,0.326 -0.816386,0.195969 -1.427938,0.574793 -1.421655,1.532845 0.0055,0.902641 0.431649,1.34999 1.472629,1.58604 1.813596,0.411148 3.578609,0.04636 5.248691,-0.555215 1.391735,-0.501467 2.75484,-1.202413 3.971104,-2.045395 2.175798,-1.507911 2.863628,-4.726721 0.680438,-6.874072 -1.964673,-1.932357 -4.194033,-3.161921 -6.852087,-3.708825 -0.4178,-0.08589 -0.831347,-0.19246 -1.246739,-0.289613"
       style="fill:#016ddc;fill-opacity:1;fill-rule:evenodd;stroke:#016ddc;stroke-width:0.0184702;stroke-opacity:1" />
    <path
       id="path28"
       d="m 131.57358,66.004338 0.008,17.076849 h 2.17357 l 0.0258,-17.076849 h -2.207"
       style="fill:#016ddc;fill-opacity:1;fill-rule:nonzero;stroke:#016ddc;stroke-width:0.0184702;stroke-opacity:1" />
    <path
       id="path29"
       d="m 132.86539,68.139313 c 2.54205,2.451741 11.93363,0.253043 14.45592,-0.332833 0,0 -6.49673,0.361647 -9.10971,0.23254 -2.69222,-0.132986 -5.24278,-1.295872 -5.24278,-1.295872 0,0 -0.38159,1.128162 -0.10343,1.396165"
       style="fill:#016ddc;fill-opacity:1;fill-rule:nonzero;stroke:#016ddc;stroke-width:0.0184702;stroke-opacity:1" />
    <path
       id="path30"
       d="m 131.91011,66.144896 c 2.7576,2.205902 11.90628,-1.462474 14.36356,-2.278674 0,0 -6.43632,1.265581 -9.05004,1.37862 -2.69223,0.116546 -5.39572,-0.214625 -5.39572,-0.214625 0,0 -0.2198,0.872904 0.0822,1.114679"
       style="fill:#016ddc;fill-opacity:1;fill-rule:nonzero;stroke:#016ddc;stroke-width:0.0184702;stroke-opacity:1" />
    <path
       id="path31"
       d="m 131.90752,65.670396 c 1.79531,1.661028 6.77451,-2.739876 8.11269,-3.917355 0,0 -3.61537,1.95877 -5.10943,2.48942 -1.53912,0.547273 -3.15545,0.376608 -3.15545,0.376608 0,0 -0.0447,0.869394 0.15219,1.051327"
       style="fill:#016ddc;fill-opacity:1;fill-rule:nonzero;stroke:#016ddc;stroke-width:0.0184702;stroke-opacity:1" />
    <path
       id="path32"
       d="m 132.56229,65.640104 c -1.79549,1.66103 -6.77489,-2.740061 -8.11287,-3.917538 0,0 3.61518,1.958953 5.10924,2.489604 1.53949,0.547088 3.15583,0.376238 3.15583,0.376238 0,0 0.044,0.869395 -0.1522,1.051696"
       style="fill:#016ddc;fill-opacity:1;fill-rule:nonzero;stroke:#016ddc;stroke-width:0.0184702;stroke-opacity:1" />
    <path
       id="path33"
       d="m 133.35504,69.636142 c -1.76483,-0.671578 -1.51216,-5.746278 -0.92204,-8.317336 0.17436,-0.759127 0.72107,-0.298664 0.8258,-0.691157 0,0 -0.45381,4.10926 -0.26505,5.683479 0.19339,1.622058 1.37068,2.994212 1.37068,2.994212 0,0 -0.75894,0.426293 -1.00939,0.330802"
       style="fill:#016ddc;fill-opacity:1;fill-rule:nonzero;stroke:#016ddc;stroke-width:0.0184702;stroke-opacity:1" />
    <path
       id="path34"
       d="m 132.14949,69.59717 c 1.72123,3.689247 12.80153,3.087486 15.77469,2.932521 0,0 -7.35836,-0.712952 -10.13056,-1.482237 -2.85476,-0.792374 -4.73688,-2.763334 -4.73688,-2.763334 0,0 -1.09658,0.90929 -0.90725,1.31305"
       style="fill:#016ddc;fill-opacity:1;fill-rule:nonzero;stroke:#016ddc;stroke-width:0.0184702;stroke-opacity:1" />
    <path
       id="path35"
       d="m 132.52184,73.86786 c -2.25115,3.215301 -12.67225,0.79145 -15.46994,0.147023 0,0 7.18308,0.813984 9.94364,0.547089 2.84406,-0.275207 5.12735,-1.900219 5.12735,-1.900219 0,0 0.64553,0.854064 0.39895,1.206107"
       style="fill:#016ddc;fill-opacity:1;fill-rule:nonzero;stroke:#016ddc;stroke-width:0.0184702;stroke-opacity:1" />
    <path
       id="path36"
       d="m 133.2021,69.309588 c -2.90038,4.890736 -17.80809,0.729021 -21.8093,-0.379379 0,0 10.76335,1.964126 14.63509,1.658813 3.98865,-0.314363 6.53847,-3.157858 6.53847,-3.157858 0,0 0.95325,1.343525 0.63574,1.878424"
       style="fill:#016ddc;fill-opacity:1;fill-rule:nonzero;stroke:#016ddc;stroke-width:0.0184702;stroke-opacity:1" />
    <path
       id="path37"
       d="m 132.39809,66.679794 c -2.4473,3.186487 -12.5557,-0.990559 -15.26936,-2.105608 0,0 7.58333,1.777207 10.32525,1.888952 2.82484,0.115994 4.88593,-1.080693 4.88593,-1.080693 0,0 0.326,0.948632 0.0582,1.297349"
       style="fill:#016ddc;fill-opacity:1;fill-rule:nonzero;stroke:#016ddc;stroke-width:0.0184702;stroke-opacity:1" />
    <path
       id="path38"
       d="m 120.47611,73.769414 c 0,0.954542 -1.14665,1.728075 -2.56147,1.728075 -1.41481,0 -2.56163,-0.773533 -2.56163,-1.728075 0,-0.954358 1.14682,-1.728261 2.56163,-1.728261 1.41482,0 2.56147,0.773903 2.56147,1.728261"
       style="fill:#016ddc;fill-opacity:1;fill-rule:nonzero;stroke:#016ddc;stroke-width:0.0184702;stroke-opacity:1" />
    <path
       id="path39"
       d="m 120.73062,64.987181 c 0,0.954173 -1.14663,1.728077 -2.56127,1.728077 -1.415,0 -2.56164,-0.773904 -2.56164,-1.728077 0,-0.954542 1.14664,-1.72826 2.56164,-1.72826 1.41464,0 2.56127,0.773718 2.56127,1.72826"
       style="fill:#016ddc;fill-opacity:1;fill-rule:nonzero;stroke:#016ddc;stroke-width:0.0184702;stroke-opacity:1" />
    <path
       id="path40"
       d="m 114.84378,68.64115 c 0,0.954358 -1.14681,1.728076 -2.56127,1.728076 -1.41518,0 -2.56163,-0.773718 -2.56163,-1.728076 0,-0.954542 1.14645,-1.728076 2.56163,-1.728076 1.41446,0 2.56127,0.773534 2.56127,1.728076"
       style="fill:#016ddc;fill-opacity:1;fill-rule:nonzero;stroke:#016ddc;stroke-width:0.0184702;stroke-opacity:1" />
    <path
       id="path41"
       d="m 126.56168,61.636125 c 0,0.954542 -1.14682,1.728261 -2.56127,1.728261 -1.41519,0 -2.56182,-0.773719 -2.56182,-1.728261 0,-0.954358 1.14663,-1.728077 2.56182,-1.728077 1.41445,0 2.56127,0.773719 2.56127,1.728077"
       style="fill:#016ddc;fill-opacity:1;fill-rule:nonzero;stroke:#016ddc;stroke-width:0.0184702;stroke-opacity:1" />
    <path
       id="path42"
       d="m 141.7904,61.780931 c 0,0.954543 -1.14664,1.728261 -2.56146,1.728261 -1.41482,0 -2.56145,-0.773718 -2.56145,-1.728261 0,-0.954172 1.14663,-1.728076 2.56145,-1.728076 1.41482,0 2.56146,0.773904 2.56146,1.728076"
       style="fill:#016ddc;fill-opacity:1;fill-rule:nonzero;stroke:#016ddc;stroke-width:0.0184702;stroke-opacity:1" />
    <path
       id="path43"
       d="m 135.30014,60.200986 c 0,0.954358 -1.14663,1.728261 -2.56128,1.728261 -1.41482,0 -2.56145,-0.773903 -2.56145,-1.728261 0,-0.954357 1.14663,-1.728076 2.56145,-1.728076 1.41465,0 2.56128,0.773719 2.56128,1.728076"
       style="fill:#016ddc;fill-opacity:1;fill-rule:nonzero;stroke:#016ddc;stroke-width:0.0184702;stroke-opacity:1" />
    <path
       id="path44"
       d="m 148.39018,63.258921 c 0,0.954541 -1.14644,1.72826 -2.5609,1.72826 -1.415,0 -2.56163,-0.773719 -2.56163,-1.72826 0,-0.954543 1.14663,-1.728077 2.56163,-1.728077 1.41446,0 2.5609,0.773534 2.5609,1.728077"
       style="fill:#016ddc;fill-opacity:1;fill-rule:nonzero;stroke:#016ddc;stroke-width:0.0184702;stroke-opacity:1" />
    <path
       id="path45"
       d="m 148.83495,67.855795 c 0,0.954542 -1.14682,1.728077 -2.5609,1.728077 -1.41519,0 -2.56182,-0.773535 -2.56182,-1.728077 0,-0.954357 1.14663,-1.72826 2.56182,-1.72826 1.41408,0 2.5609,0.773903 2.5609,1.72826"
       style="fill:#016ddc;fill-opacity:1;fill-rule:nonzero;stroke:#016ddc;stroke-width:0.0184702;stroke-opacity:1" />
    <path
       id="path46"
       d="m 149.88258,72.661938 c 0,0.954358 -1.14682,1.728261 -2.56127,1.728261 -1.41501,0 -2.56164,-0.773903 -2.56164,-1.728261 0,-0.954358 1.14663,-1.728261 2.56164,-1.728261 1.41445,0 2.56127,0.773903 2.56127,1.728261"
       style="fill:#016ddc;fill-opacity:1;fill-rule:nonzero;stroke:#016ddc;stroke-width:0.0184702;stroke-opacity:1" />
  </g>
</svg>
